%TF.GenerationSoftware,KiCad,Pcbnew,5.1.10-88a1d61d58~90~ubuntu20.04.1*%
%TF.CreationDate,2021-09-14T14:26:02-04:00*%
%TF.ProjectId,tele-pi,74656c65-2d70-4692-9e6b-696361645f70,rev?*%
%TF.SameCoordinates,Original*%
%TF.FileFunction,Copper,L2,Bot*%
%TF.FilePolarity,Positive*%
%FSLAX46Y46*%
G04 Gerber Fmt 4.6, Leading zero omitted, Abs format (unit mm)*
G04 Created by KiCad (PCBNEW 5.1.10-88a1d61d58~90~ubuntu20.04.1) date 2021-09-14 14:26:02*
%MOMM*%
%LPD*%
G01*
G04 APERTURE LIST*
%TA.AperFunction,ComponentPad*%
%ADD10O,1.600000X1.600000*%
%TD*%
%TA.AperFunction,ComponentPad*%
%ADD11C,1.600000*%
%TD*%
%TA.AperFunction,ComponentPad*%
%ADD12C,3.000000*%
%TD*%
%TA.AperFunction,ComponentPad*%
%ADD13R,3.000000X3.000000*%
%TD*%
%TA.AperFunction,ComponentPad*%
%ADD14C,1.308100*%
%TD*%
%TA.AperFunction,ComponentPad*%
%ADD15C,2.171700*%
%TD*%
%TA.AperFunction,ComponentPad*%
%ADD16R,1.500000X1.050000*%
%TD*%
%TA.AperFunction,ComponentPad*%
%ADD17O,1.500000X1.050000*%
%TD*%
%TA.AperFunction,ComponentPad*%
%ADD18O,1.700000X1.700000*%
%TD*%
%TA.AperFunction,ComponentPad*%
%ADD19R,1.700000X1.700000*%
%TD*%
%TA.AperFunction,Conductor*%
%ADD20C,1.000000*%
%TD*%
%TA.AperFunction,Conductor*%
%ADD21C,0.254000*%
%TD*%
%TA.AperFunction,Conductor*%
%ADD22C,0.100000*%
%TD*%
G04 APERTURE END LIST*
D10*
%TO.P,R1,2*%
%TO.N,Net-(Q1-Pad1)*%
X82550000Y-69850000D03*
D11*
%TO.P,R1,1*%
%TO.N,Net-(K1-Pad2)*%
X97790000Y-69850000D03*
%TD*%
D12*
%TO.P,+            -,3*%
%TO.N,Net-(J1-TX1-PadS)*%
X114300000Y-110490000D03*
%TO.P,+            -,2*%
%TO.N,Net-(J2-Pad2)*%
X109220000Y-110490000D03*
D13*
%TO.P,+            -,1*%
%TO.N,Net-(J1-TX2-PadT)*%
X104140000Y-110490000D03*
%TD*%
D10*
%TO.P,R3,2*%
%TO.N,Net-(K2-Pad6)*%
X120650000Y-66040000D03*
D11*
%TO.P,R3,1*%
%TO.N,GND*%
X105410000Y-66040000D03*
%TD*%
D10*
%TO.P,R2,2*%
%TO.N,Net-(K2-Pad6)*%
X120650000Y-69850000D03*
D11*
%TO.P,R2,1*%
%TO.N,Net-(J1-Pad16)*%
X105410000Y-69850000D03*
%TD*%
D14*
%TO.P,K2,8*%
%TO.N,Net-(J1-Pad17)*%
X123190000Y-73660000D03*
%TO.P,K2,7*%
%TO.N,Net-(K2-Pad6)*%
X125730000Y-73660000D03*
%TO.P,K2,6*%
X128270000Y-73660000D03*
%TO.P,K2,5*%
%TO.N,Net-(J1-Pad17)*%
X130810000Y-73660000D03*
%TO.P,K2,4*%
%TO.N,Net-(K2-Pad4)*%
X130810000Y-81280000D03*
%TO.P,K2,3*%
%TO.N,Net-(K1-Pad5)*%
X128270000Y-81280000D03*
%TO.P,K2,2*%
%TO.N,Net-(J1-TX2-PadS)*%
X125730000Y-81280000D03*
%TO.P,K2,1*%
%TO.N,Net-(K2-Pad1)*%
X123190000Y-81280000D03*
%TD*%
D15*
%TO.P,KEYBOARD-(RX),TB*%
%TO.N,Net-(J1-TX2-PadT)*%
X123113800Y-92913200D03*
%TO.P,KEYBOARD-(RX),T*%
X133019800Y-92913200D03*
%TO.P,KEYBOARD-(RX),S*%
%TO.N,Net-(J1-TX2-PadS)*%
X133019800Y-110693200D03*
%TD*%
D14*
%TO.P,K1,8*%
%TO.N,Net-(K1-Pad5)*%
X93980000Y-81280000D03*
%TO.P,K1,7*%
%TO.N,Net-(J1-TX1-PadT)*%
X91440000Y-81280000D03*
%TO.P,K1,6*%
X88900000Y-81280000D03*
%TO.P,K1,5*%
%TO.N,Net-(K1-Pad5)*%
X86360000Y-81280000D03*
%TO.P,K1,4*%
%TO.N,Net-(K1-Pad4)*%
X86360000Y-73660000D03*
%TO.P,K1,3*%
%TO.N,GND*%
X88900000Y-73660000D03*
%TO.P,K1,2*%
%TO.N,Net-(K1-Pad2)*%
X91440000Y-73660000D03*
%TO.P,K1,1*%
%TO.N,Net-(K1-Pad1)*%
X93980000Y-73660000D03*
%TD*%
D16*
%TO.P,Q1,1*%
%TO.N,Net-(Q1-Pad1)*%
X78740000Y-68580000D03*
D17*
%TO.P,Q1,3*%
%TO.N,Net-(J1-Pad2)*%
X78740000Y-66040000D03*
%TO.P,Q1,2*%
%TO.N,Net-(J1-Pad3)*%
X78740000Y-67310000D03*
%TD*%
D18*
%TO.P,J1,40*%
%TO.N,Net-(J1-Pad40)*%
X132080000Y-58420000D03*
%TO.P,J1,39*%
%TO.N,GND*%
X132080000Y-60960000D03*
%TO.P,J1,38*%
%TO.N,Net-(J1-Pad38)*%
X129540000Y-58420000D03*
%TO.P,J1,37*%
%TO.N,Net-(J1-Pad37)*%
X129540000Y-60960000D03*
%TO.P,J1,36*%
%TO.N,Net-(J1-Pad36)*%
X127000000Y-58420000D03*
%TO.P,J1,35*%
%TO.N,Net-(J1-Pad35)*%
X127000000Y-60960000D03*
%TO.P,J1,34*%
%TO.N,GND*%
X124460000Y-58420000D03*
%TO.P,J1,33*%
%TO.N,Net-(J1-Pad33)*%
X124460000Y-60960000D03*
%TO.P,J1,32*%
%TO.N,Net-(J1-Pad32)*%
X121920000Y-58420000D03*
%TO.P,J1,31*%
%TO.N,Net-(J1-Pad31)*%
X121920000Y-60960000D03*
%TO.P,J1,30*%
%TO.N,GND*%
X119380000Y-58420000D03*
%TO.P,J1,29*%
%TO.N,Net-(J1-Pad29)*%
X119380000Y-60960000D03*
%TO.P,J1,28*%
%TO.N,Net-(J1-Pad28)*%
X116840000Y-58420000D03*
%TO.P,J1,27*%
%TO.N,Net-(J1-Pad27)*%
X116840000Y-60960000D03*
%TO.P,J1,26*%
%TO.N,Net-(J1-Pad26)*%
X114300000Y-58420000D03*
%TO.P,J1,25*%
%TO.N,GND*%
X114300000Y-60960000D03*
%TO.P,J1,24*%
%TO.N,Net-(J1-Pad24)*%
X111760000Y-58420000D03*
%TO.P,J1,23*%
%TO.N,Net-(J1-Pad23)*%
X111760000Y-60960000D03*
%TO.P,J1,22*%
%TO.N,Net-(J1-Pad22)*%
X109220000Y-58420000D03*
%TO.P,J1,21*%
%TO.N,Net-(J1-Pad21)*%
X109220000Y-60960000D03*
%TO.P,J1,20*%
%TO.N,GND*%
X106680000Y-58420000D03*
%TO.P,J1,19*%
%TO.N,Net-(J1-Pad19)*%
X106680000Y-60960000D03*
%TO.P,J1,18*%
%TO.N,Net-(J1-Pad18)*%
X104140000Y-58420000D03*
%TO.P,J1,17*%
%TO.N,Net-(J1-Pad17)*%
X104140000Y-60960000D03*
%TO.P,J1,16*%
%TO.N,Net-(J1-Pad16)*%
X101600000Y-58420000D03*
%TO.P,J1,15*%
%TO.N,Net-(J1-Pad15)*%
X101600000Y-60960000D03*
%TO.P,J1,14*%
%TO.N,GND*%
X99060000Y-58420000D03*
%TO.P,J1,13*%
%TO.N,Net-(J1-Pad13)*%
X99060000Y-60960000D03*
%TO.P,J1,12*%
%TO.N,Net-(J1-Pad12)*%
X96520000Y-58420000D03*
%TO.P,J1,11*%
%TO.N,Net-(J1-Pad11)*%
X96520000Y-60960000D03*
%TO.P,J1,10*%
%TO.N,Net-(J1-Pad10)*%
X93980000Y-58420000D03*
%TO.P,J1,9*%
%TO.N,GND*%
X93980000Y-60960000D03*
%TO.P,J1,8*%
%TO.N,Net-(J1-Pad8)*%
X91440000Y-58420000D03*
%TO.P,J1,7*%
%TO.N,Net-(J1-Pad7)*%
X91440000Y-60960000D03*
%TO.P,J1,6*%
%TO.N,GND*%
X88900000Y-58420000D03*
%TO.P,J1,5*%
%TO.N,Net-(J1-Pad5)*%
X88900000Y-60960000D03*
%TO.P,J1,4*%
%TO.N,Net-(J1-Pad4)*%
X86360000Y-58420000D03*
%TO.P,J1,3*%
%TO.N,Net-(J1-Pad3)*%
X86360000Y-60960000D03*
%TO.P,J1,2*%
%TO.N,Net-(J1-Pad2)*%
X83820000Y-58420000D03*
D19*
%TO.P,J1,1*%
%TO.N,Net-(J1-Pad1)*%
X83820000Y-60960000D03*
%TD*%
D15*
%TO.P,PRINTER-(TX),TB*%
%TO.N,Net-(J1-TX1-PadT)*%
X86283800Y-92913200D03*
%TO.P,PRINTER-(TX),T*%
X96189800Y-92913200D03*
%TO.P,PRINTER-(TX),S*%
%TO.N,Net-(J1-TX1-PadS)*%
X96189800Y-110693200D03*
%TD*%
D20*
%TO.N,Net-(J1-TX1-PadS)*%
X96189800Y-110693200D02*
X96189800Y-108280200D01*
X96189800Y-108280200D02*
X100330000Y-104140000D01*
X100330000Y-104140000D02*
X110490000Y-104140000D01*
X114300000Y-107950000D02*
X114300000Y-110490000D01*
X110490000Y-104140000D02*
X114300000Y-107950000D01*
%TO.N,Net-(J1-TX2-PadS)*%
X120650000Y-90170000D02*
X125730000Y-85090000D01*
X120650000Y-99631310D02*
X120650000Y-90170000D01*
X126428690Y-105410000D02*
X120650000Y-99631310D01*
X130810000Y-105410000D02*
X126428690Y-105410000D01*
X125730000Y-85090000D02*
X125730000Y-81280000D01*
X133019800Y-107619800D02*
X130810000Y-105410000D01*
X133019800Y-110693200D02*
X133019800Y-107619800D01*
%TD*%
D21*
%TO.N,GND*%
X138303000Y-58186658D02*
X138052882Y-58019534D01*
X137709834Y-57877439D01*
X137345656Y-57805000D01*
X136974344Y-57805000D01*
X136610166Y-57877439D01*
X136267118Y-58019534D01*
X135958382Y-58225825D01*
X135695825Y-58488382D01*
X135489534Y-58797118D01*
X135347439Y-59140166D01*
X135275000Y-59504344D01*
X135275000Y-59875656D01*
X135347439Y-60239834D01*
X135489534Y-60582882D01*
X135695825Y-60891618D01*
X135958382Y-61154175D01*
X136267118Y-61360466D01*
X136610166Y-61502561D01*
X136974344Y-61575000D01*
X137345656Y-61575000D01*
X137709834Y-61502561D01*
X138052882Y-61360466D01*
X138303000Y-61193342D01*
X138303000Y-76073000D01*
X76327000Y-76073000D01*
X76327000Y-73533040D01*
X85070950Y-73533040D01*
X85070950Y-73786960D01*
X85120488Y-74036002D01*
X85217659Y-74270594D01*
X85358730Y-74481721D01*
X85538279Y-74661270D01*
X85749406Y-74802341D01*
X85983998Y-74899512D01*
X86233040Y-74949050D01*
X86486960Y-74949050D01*
X86736002Y-74899512D01*
X86970594Y-74802341D01*
X87181721Y-74661270D01*
X87294569Y-74548422D01*
X88191183Y-74548422D01*
X88245063Y-74777509D01*
X88475663Y-74883809D01*
X88722570Y-74943078D01*
X88976295Y-74953039D01*
X89227089Y-74913309D01*
X89465312Y-74825415D01*
X89554937Y-74777509D01*
X89608817Y-74548422D01*
X88900000Y-73839605D01*
X88191183Y-74548422D01*
X87294569Y-74548422D01*
X87361270Y-74481721D01*
X87502341Y-74270594D01*
X87599512Y-74036002D01*
X87630088Y-73882286D01*
X87646691Y-73987089D01*
X87734585Y-74225312D01*
X87782491Y-74314937D01*
X88011578Y-74368817D01*
X88720395Y-73660000D01*
X89079605Y-73660000D01*
X89788422Y-74368817D01*
X90017509Y-74314937D01*
X90123809Y-74084337D01*
X90170999Y-73887751D01*
X90200488Y-74036002D01*
X90297659Y-74270594D01*
X90438730Y-74481721D01*
X90618279Y-74661270D01*
X90829406Y-74802341D01*
X91063998Y-74899512D01*
X91313040Y-74949050D01*
X91566960Y-74949050D01*
X91816002Y-74899512D01*
X92050594Y-74802341D01*
X92261721Y-74661270D01*
X92441270Y-74481721D01*
X92582341Y-74270594D01*
X92679512Y-74036002D01*
X92710000Y-73882730D01*
X92740488Y-74036002D01*
X92837659Y-74270594D01*
X92978730Y-74481721D01*
X93158279Y-74661270D01*
X93369406Y-74802341D01*
X93603998Y-74899512D01*
X93853040Y-74949050D01*
X94106960Y-74949050D01*
X94356002Y-74899512D01*
X94590594Y-74802341D01*
X94801721Y-74661270D01*
X94981270Y-74481721D01*
X95122341Y-74270594D01*
X95219512Y-74036002D01*
X95269050Y-73786960D01*
X95269050Y-73533040D01*
X121900950Y-73533040D01*
X121900950Y-73786960D01*
X121950488Y-74036002D01*
X122047659Y-74270594D01*
X122188730Y-74481721D01*
X122368279Y-74661270D01*
X122579406Y-74802341D01*
X122813998Y-74899512D01*
X123063040Y-74949050D01*
X123316960Y-74949050D01*
X123566002Y-74899512D01*
X123800594Y-74802341D01*
X124011721Y-74661270D01*
X124191270Y-74481721D01*
X124332341Y-74270594D01*
X124429512Y-74036002D01*
X124460000Y-73882730D01*
X124490488Y-74036002D01*
X124587659Y-74270594D01*
X124728730Y-74481721D01*
X124908279Y-74661270D01*
X125119406Y-74802341D01*
X125353998Y-74899512D01*
X125603040Y-74949050D01*
X125856960Y-74949050D01*
X126106002Y-74899512D01*
X126340594Y-74802341D01*
X126551721Y-74661270D01*
X126731270Y-74481721D01*
X126872341Y-74270594D01*
X126969512Y-74036002D01*
X127000000Y-73882730D01*
X127030488Y-74036002D01*
X127127659Y-74270594D01*
X127268730Y-74481721D01*
X127448279Y-74661270D01*
X127659406Y-74802341D01*
X127893998Y-74899512D01*
X128143040Y-74949050D01*
X128396960Y-74949050D01*
X128646002Y-74899512D01*
X128880594Y-74802341D01*
X129091721Y-74661270D01*
X129271270Y-74481721D01*
X129412341Y-74270594D01*
X129509512Y-74036002D01*
X129540000Y-73882730D01*
X129570488Y-74036002D01*
X129667659Y-74270594D01*
X129808730Y-74481721D01*
X129988279Y-74661270D01*
X130199406Y-74802341D01*
X130433998Y-74899512D01*
X130683040Y-74949050D01*
X130936960Y-74949050D01*
X131186002Y-74899512D01*
X131420594Y-74802341D01*
X131631721Y-74661270D01*
X131811270Y-74481721D01*
X131952341Y-74270594D01*
X132049512Y-74036002D01*
X132099050Y-73786960D01*
X132099050Y-73533040D01*
X132049512Y-73283998D01*
X131952341Y-73049406D01*
X131811270Y-72838279D01*
X131631721Y-72658730D01*
X131420594Y-72517659D01*
X131186002Y-72420488D01*
X130936960Y-72370950D01*
X130683040Y-72370950D01*
X130433998Y-72420488D01*
X130199406Y-72517659D01*
X129988279Y-72658730D01*
X129808730Y-72838279D01*
X129667659Y-73049406D01*
X129570488Y-73283998D01*
X129540000Y-73437270D01*
X129509512Y-73283998D01*
X129412341Y-73049406D01*
X129271270Y-72838279D01*
X129091721Y-72658730D01*
X128880594Y-72517659D01*
X128646002Y-72420488D01*
X128396960Y-72370950D01*
X128143040Y-72370950D01*
X127893998Y-72420488D01*
X127659406Y-72517659D01*
X127448279Y-72658730D01*
X127268730Y-72838279D01*
X127127659Y-73049406D01*
X127030488Y-73283998D01*
X127000000Y-73437270D01*
X126969512Y-73283998D01*
X126872341Y-73049406D01*
X126731270Y-72838279D01*
X126551721Y-72658730D01*
X126340594Y-72517659D01*
X126106002Y-72420488D01*
X125856960Y-72370950D01*
X125603040Y-72370950D01*
X125353998Y-72420488D01*
X125119406Y-72517659D01*
X124908279Y-72658730D01*
X124728730Y-72838279D01*
X124587659Y-73049406D01*
X124490488Y-73283998D01*
X124460000Y-73437270D01*
X124429512Y-73283998D01*
X124332341Y-73049406D01*
X124191270Y-72838279D01*
X124011721Y-72658730D01*
X123800594Y-72517659D01*
X123566002Y-72420488D01*
X123316960Y-72370950D01*
X123063040Y-72370950D01*
X122813998Y-72420488D01*
X122579406Y-72517659D01*
X122368279Y-72658730D01*
X122188730Y-72838279D01*
X122047659Y-73049406D01*
X121950488Y-73283998D01*
X121900950Y-73533040D01*
X95269050Y-73533040D01*
X95219512Y-73283998D01*
X95122341Y-73049406D01*
X94981270Y-72838279D01*
X94801721Y-72658730D01*
X94590594Y-72517659D01*
X94356002Y-72420488D01*
X94106960Y-72370950D01*
X93853040Y-72370950D01*
X93603998Y-72420488D01*
X93369406Y-72517659D01*
X93158279Y-72658730D01*
X92978730Y-72838279D01*
X92837659Y-73049406D01*
X92740488Y-73283998D01*
X92710000Y-73437270D01*
X92679512Y-73283998D01*
X92582341Y-73049406D01*
X92441270Y-72838279D01*
X92261721Y-72658730D01*
X92050594Y-72517659D01*
X91816002Y-72420488D01*
X91566960Y-72370950D01*
X91313040Y-72370950D01*
X91063998Y-72420488D01*
X90829406Y-72517659D01*
X90618279Y-72658730D01*
X90438730Y-72838279D01*
X90297659Y-73049406D01*
X90200488Y-73283998D01*
X90169912Y-73437714D01*
X90153309Y-73332911D01*
X90065415Y-73094688D01*
X90017509Y-73005063D01*
X89788422Y-72951183D01*
X89079605Y-73660000D01*
X88720395Y-73660000D01*
X88011578Y-72951183D01*
X87782491Y-73005063D01*
X87676191Y-73235663D01*
X87629001Y-73432249D01*
X87599512Y-73283998D01*
X87502341Y-73049406D01*
X87361270Y-72838279D01*
X87294569Y-72771578D01*
X88191183Y-72771578D01*
X88900000Y-73480395D01*
X89608817Y-72771578D01*
X89554937Y-72542491D01*
X89324337Y-72436191D01*
X89077430Y-72376922D01*
X88823705Y-72366961D01*
X88572911Y-72406691D01*
X88334688Y-72494585D01*
X88245063Y-72542491D01*
X88191183Y-72771578D01*
X87294569Y-72771578D01*
X87181721Y-72658730D01*
X86970594Y-72517659D01*
X86736002Y-72420488D01*
X86486960Y-72370950D01*
X86233040Y-72370950D01*
X85983998Y-72420488D01*
X85749406Y-72517659D01*
X85538279Y-72658730D01*
X85358730Y-72838279D01*
X85217659Y-73049406D01*
X85120488Y-73283998D01*
X85070950Y-73533040D01*
X76327000Y-73533040D01*
X76327000Y-66040000D01*
X77349388Y-66040000D01*
X77371785Y-66267400D01*
X77438115Y-66486060D01*
X77539105Y-66675000D01*
X77438115Y-66863940D01*
X77371785Y-67082600D01*
X77349388Y-67310000D01*
X77371785Y-67537400D01*
X77435093Y-67746098D01*
X77400498Y-67810820D01*
X77364188Y-67930518D01*
X77351928Y-68055000D01*
X77351928Y-69105000D01*
X77364188Y-69229482D01*
X77400498Y-69349180D01*
X77459463Y-69459494D01*
X77538815Y-69556185D01*
X77635506Y-69635537D01*
X77745820Y-69694502D01*
X77865518Y-69730812D01*
X77990000Y-69743072D01*
X79490000Y-69743072D01*
X79614482Y-69730812D01*
X79687490Y-69708665D01*
X81115000Y-69708665D01*
X81115000Y-69991335D01*
X81170147Y-70268574D01*
X81278320Y-70529727D01*
X81435363Y-70764759D01*
X81635241Y-70964637D01*
X81870273Y-71121680D01*
X82131426Y-71229853D01*
X82408665Y-71285000D01*
X82691335Y-71285000D01*
X82968574Y-71229853D01*
X83229727Y-71121680D01*
X83464759Y-70964637D01*
X83664637Y-70764759D01*
X83821680Y-70529727D01*
X83929853Y-70268574D01*
X83985000Y-69991335D01*
X83985000Y-69708665D01*
X96355000Y-69708665D01*
X96355000Y-69991335D01*
X96410147Y-70268574D01*
X96518320Y-70529727D01*
X96675363Y-70764759D01*
X96875241Y-70964637D01*
X97110273Y-71121680D01*
X97371426Y-71229853D01*
X97648665Y-71285000D01*
X97931335Y-71285000D01*
X98208574Y-71229853D01*
X98469727Y-71121680D01*
X98704759Y-70964637D01*
X98904637Y-70764759D01*
X99061680Y-70529727D01*
X99169853Y-70268574D01*
X99225000Y-69991335D01*
X99225000Y-69708665D01*
X103975000Y-69708665D01*
X103975000Y-69991335D01*
X104030147Y-70268574D01*
X104138320Y-70529727D01*
X104295363Y-70764759D01*
X104495241Y-70964637D01*
X104730273Y-71121680D01*
X104991426Y-71229853D01*
X105268665Y-71285000D01*
X105551335Y-71285000D01*
X105828574Y-71229853D01*
X106089727Y-71121680D01*
X106324759Y-70964637D01*
X106524637Y-70764759D01*
X106681680Y-70529727D01*
X106789853Y-70268574D01*
X106845000Y-69991335D01*
X106845000Y-69708665D01*
X119215000Y-69708665D01*
X119215000Y-69991335D01*
X119270147Y-70268574D01*
X119378320Y-70529727D01*
X119535363Y-70764759D01*
X119735241Y-70964637D01*
X119970273Y-71121680D01*
X120231426Y-71229853D01*
X120508665Y-71285000D01*
X120791335Y-71285000D01*
X121068574Y-71229853D01*
X121329727Y-71121680D01*
X121564759Y-70964637D01*
X121764637Y-70764759D01*
X121921680Y-70529727D01*
X122029853Y-70268574D01*
X122085000Y-69991335D01*
X122085000Y-69708665D01*
X122029853Y-69431426D01*
X121921680Y-69170273D01*
X121764637Y-68935241D01*
X121564759Y-68735363D01*
X121329727Y-68578320D01*
X121068574Y-68470147D01*
X120791335Y-68415000D01*
X120508665Y-68415000D01*
X120231426Y-68470147D01*
X119970273Y-68578320D01*
X119735241Y-68735363D01*
X119535363Y-68935241D01*
X119378320Y-69170273D01*
X119270147Y-69431426D01*
X119215000Y-69708665D01*
X106845000Y-69708665D01*
X106789853Y-69431426D01*
X106681680Y-69170273D01*
X106524637Y-68935241D01*
X106324759Y-68735363D01*
X106089727Y-68578320D01*
X105828574Y-68470147D01*
X105551335Y-68415000D01*
X105268665Y-68415000D01*
X104991426Y-68470147D01*
X104730273Y-68578320D01*
X104495241Y-68735363D01*
X104295363Y-68935241D01*
X104138320Y-69170273D01*
X104030147Y-69431426D01*
X103975000Y-69708665D01*
X99225000Y-69708665D01*
X99169853Y-69431426D01*
X99061680Y-69170273D01*
X98904637Y-68935241D01*
X98704759Y-68735363D01*
X98469727Y-68578320D01*
X98208574Y-68470147D01*
X97931335Y-68415000D01*
X97648665Y-68415000D01*
X97371426Y-68470147D01*
X97110273Y-68578320D01*
X96875241Y-68735363D01*
X96675363Y-68935241D01*
X96518320Y-69170273D01*
X96410147Y-69431426D01*
X96355000Y-69708665D01*
X83985000Y-69708665D01*
X83929853Y-69431426D01*
X83821680Y-69170273D01*
X83664637Y-68935241D01*
X83464759Y-68735363D01*
X83229727Y-68578320D01*
X82968574Y-68470147D01*
X82691335Y-68415000D01*
X82408665Y-68415000D01*
X82131426Y-68470147D01*
X81870273Y-68578320D01*
X81635241Y-68735363D01*
X81435363Y-68935241D01*
X81278320Y-69170273D01*
X81170147Y-69431426D01*
X81115000Y-69708665D01*
X79687490Y-69708665D01*
X79734180Y-69694502D01*
X79844494Y-69635537D01*
X79941185Y-69556185D01*
X80020537Y-69459494D01*
X80079502Y-69349180D01*
X80115812Y-69229482D01*
X80128072Y-69105000D01*
X80128072Y-68055000D01*
X80115812Y-67930518D01*
X80079502Y-67810820D01*
X80044907Y-67746098D01*
X80108215Y-67537400D01*
X80130612Y-67310000D01*
X80108215Y-67082600D01*
X80093079Y-67032702D01*
X104596903Y-67032702D01*
X104668486Y-67276671D01*
X104923996Y-67397571D01*
X105198184Y-67466300D01*
X105480512Y-67480217D01*
X105760130Y-67438787D01*
X106026292Y-67343603D01*
X106151514Y-67276671D01*
X106223097Y-67032702D01*
X105410000Y-66219605D01*
X104596903Y-67032702D01*
X80093079Y-67032702D01*
X80041885Y-66863940D01*
X79940895Y-66675000D01*
X80041885Y-66486060D01*
X80108215Y-66267400D01*
X80123667Y-66110512D01*
X103969783Y-66110512D01*
X104011213Y-66390130D01*
X104106397Y-66656292D01*
X104173329Y-66781514D01*
X104417298Y-66853097D01*
X105230395Y-66040000D01*
X105589605Y-66040000D01*
X106402702Y-66853097D01*
X106646671Y-66781514D01*
X106767571Y-66526004D01*
X106836300Y-66251816D01*
X106850217Y-65969488D01*
X106839724Y-65898665D01*
X119215000Y-65898665D01*
X119215000Y-66181335D01*
X119270147Y-66458574D01*
X119378320Y-66719727D01*
X119535363Y-66954759D01*
X119735241Y-67154637D01*
X119970273Y-67311680D01*
X120231426Y-67419853D01*
X120508665Y-67475000D01*
X120791335Y-67475000D01*
X121068574Y-67419853D01*
X121329727Y-67311680D01*
X121564759Y-67154637D01*
X121764637Y-66954759D01*
X121921680Y-66719727D01*
X122029853Y-66458574D01*
X122085000Y-66181335D01*
X122085000Y-65898665D01*
X122029853Y-65621426D01*
X121921680Y-65360273D01*
X121764637Y-65125241D01*
X121564759Y-64925363D01*
X121329727Y-64768320D01*
X121068574Y-64660147D01*
X120791335Y-64605000D01*
X120508665Y-64605000D01*
X120231426Y-64660147D01*
X119970273Y-64768320D01*
X119735241Y-64925363D01*
X119535363Y-65125241D01*
X119378320Y-65360273D01*
X119270147Y-65621426D01*
X119215000Y-65898665D01*
X106839724Y-65898665D01*
X106808787Y-65689870D01*
X106713603Y-65423708D01*
X106646671Y-65298486D01*
X106402702Y-65226903D01*
X105589605Y-66040000D01*
X105230395Y-66040000D01*
X104417298Y-65226903D01*
X104173329Y-65298486D01*
X104052429Y-65553996D01*
X103983700Y-65828184D01*
X103969783Y-66110512D01*
X80123667Y-66110512D01*
X80130612Y-66040000D01*
X80108215Y-65812600D01*
X80041885Y-65593940D01*
X79934171Y-65392421D01*
X79789212Y-65215788D01*
X79612579Y-65070829D01*
X79568556Y-65047298D01*
X104596903Y-65047298D01*
X105410000Y-65860395D01*
X106223097Y-65047298D01*
X106151514Y-64803329D01*
X105896004Y-64682429D01*
X105621816Y-64613700D01*
X105339488Y-64599783D01*
X105059870Y-64641213D01*
X104793708Y-64736397D01*
X104668486Y-64803329D01*
X104596903Y-65047298D01*
X79568556Y-65047298D01*
X79411060Y-64963115D01*
X79192400Y-64896785D01*
X79021979Y-64880000D01*
X78458021Y-64880000D01*
X78287600Y-64896785D01*
X78068940Y-64963115D01*
X77867421Y-65070829D01*
X77690788Y-65215788D01*
X77545829Y-65392421D01*
X77438115Y-65593940D01*
X77371785Y-65812600D01*
X77349388Y-66040000D01*
X76327000Y-66040000D01*
X76327000Y-59504344D01*
X76855000Y-59504344D01*
X76855000Y-59875656D01*
X76927439Y-60239834D01*
X77069534Y-60582882D01*
X77275825Y-60891618D01*
X77538382Y-61154175D01*
X77847118Y-61360466D01*
X78190166Y-61502561D01*
X78554344Y-61575000D01*
X78925656Y-61575000D01*
X79289834Y-61502561D01*
X79632882Y-61360466D01*
X79941618Y-61154175D01*
X80204175Y-60891618D01*
X80410466Y-60582882D01*
X80552561Y-60239834D01*
X80578386Y-60110000D01*
X82331928Y-60110000D01*
X82331928Y-61810000D01*
X82344188Y-61934482D01*
X82380498Y-62054180D01*
X82439463Y-62164494D01*
X82518815Y-62261185D01*
X82615506Y-62340537D01*
X82725820Y-62399502D01*
X82845518Y-62435812D01*
X82970000Y-62448072D01*
X84670000Y-62448072D01*
X84794482Y-62435812D01*
X84914180Y-62399502D01*
X85024494Y-62340537D01*
X85121185Y-62261185D01*
X85200537Y-62164494D01*
X85259502Y-62054180D01*
X85281513Y-61981620D01*
X85413368Y-62113475D01*
X85656589Y-62275990D01*
X85926842Y-62387932D01*
X86213740Y-62445000D01*
X86506260Y-62445000D01*
X86793158Y-62387932D01*
X87063411Y-62275990D01*
X87306632Y-62113475D01*
X87513475Y-61906632D01*
X87630000Y-61732240D01*
X87746525Y-61906632D01*
X87953368Y-62113475D01*
X88196589Y-62275990D01*
X88466842Y-62387932D01*
X88753740Y-62445000D01*
X89046260Y-62445000D01*
X89333158Y-62387932D01*
X89603411Y-62275990D01*
X89846632Y-62113475D01*
X90053475Y-61906632D01*
X90170000Y-61732240D01*
X90286525Y-61906632D01*
X90493368Y-62113475D01*
X90736589Y-62275990D01*
X91006842Y-62387932D01*
X91293740Y-62445000D01*
X91586260Y-62445000D01*
X91873158Y-62387932D01*
X92143411Y-62275990D01*
X92386632Y-62113475D01*
X92593475Y-61906632D01*
X92715195Y-61724466D01*
X92784822Y-61841355D01*
X92979731Y-62057588D01*
X93213080Y-62231641D01*
X93475901Y-62356825D01*
X93623110Y-62401476D01*
X93853000Y-62280155D01*
X93853000Y-61087000D01*
X93833000Y-61087000D01*
X93833000Y-60833000D01*
X93853000Y-60833000D01*
X93853000Y-60813000D01*
X94107000Y-60813000D01*
X94107000Y-60833000D01*
X94127000Y-60833000D01*
X94127000Y-61087000D01*
X94107000Y-61087000D01*
X94107000Y-62280155D01*
X94336890Y-62401476D01*
X94484099Y-62356825D01*
X94746920Y-62231641D01*
X94980269Y-62057588D01*
X95175178Y-61841355D01*
X95244805Y-61724466D01*
X95366525Y-61906632D01*
X95573368Y-62113475D01*
X95816589Y-62275990D01*
X96086842Y-62387932D01*
X96373740Y-62445000D01*
X96666260Y-62445000D01*
X96953158Y-62387932D01*
X97223411Y-62275990D01*
X97466632Y-62113475D01*
X97673475Y-61906632D01*
X97790000Y-61732240D01*
X97906525Y-61906632D01*
X98113368Y-62113475D01*
X98356589Y-62275990D01*
X98626842Y-62387932D01*
X98913740Y-62445000D01*
X99206260Y-62445000D01*
X99493158Y-62387932D01*
X99763411Y-62275990D01*
X100006632Y-62113475D01*
X100213475Y-61906632D01*
X100330000Y-61732240D01*
X100446525Y-61906632D01*
X100653368Y-62113475D01*
X100896589Y-62275990D01*
X101166842Y-62387932D01*
X101453740Y-62445000D01*
X101746260Y-62445000D01*
X102033158Y-62387932D01*
X102303411Y-62275990D01*
X102546632Y-62113475D01*
X102753475Y-61906632D01*
X102870000Y-61732240D01*
X102986525Y-61906632D01*
X103193368Y-62113475D01*
X103436589Y-62275990D01*
X103706842Y-62387932D01*
X103993740Y-62445000D01*
X104286260Y-62445000D01*
X104573158Y-62387932D01*
X104843411Y-62275990D01*
X105086632Y-62113475D01*
X105293475Y-61906632D01*
X105410000Y-61732240D01*
X105526525Y-61906632D01*
X105733368Y-62113475D01*
X105976589Y-62275990D01*
X106246842Y-62387932D01*
X106533740Y-62445000D01*
X106826260Y-62445000D01*
X107113158Y-62387932D01*
X107383411Y-62275990D01*
X107626632Y-62113475D01*
X107833475Y-61906632D01*
X107950000Y-61732240D01*
X108066525Y-61906632D01*
X108273368Y-62113475D01*
X108516589Y-62275990D01*
X108786842Y-62387932D01*
X109073740Y-62445000D01*
X109366260Y-62445000D01*
X109653158Y-62387932D01*
X109923411Y-62275990D01*
X110166632Y-62113475D01*
X110373475Y-61906632D01*
X110490000Y-61732240D01*
X110606525Y-61906632D01*
X110813368Y-62113475D01*
X111056589Y-62275990D01*
X111326842Y-62387932D01*
X111613740Y-62445000D01*
X111906260Y-62445000D01*
X112193158Y-62387932D01*
X112463411Y-62275990D01*
X112706632Y-62113475D01*
X112913475Y-61906632D01*
X113035195Y-61724466D01*
X113104822Y-61841355D01*
X113299731Y-62057588D01*
X113533080Y-62231641D01*
X113795901Y-62356825D01*
X113943110Y-62401476D01*
X114173000Y-62280155D01*
X114173000Y-61087000D01*
X114153000Y-61087000D01*
X114153000Y-60833000D01*
X114173000Y-60833000D01*
X114173000Y-60813000D01*
X114427000Y-60813000D01*
X114427000Y-60833000D01*
X114447000Y-60833000D01*
X114447000Y-61087000D01*
X114427000Y-61087000D01*
X114427000Y-62280155D01*
X114656890Y-62401476D01*
X114804099Y-62356825D01*
X115066920Y-62231641D01*
X115300269Y-62057588D01*
X115495178Y-61841355D01*
X115564805Y-61724466D01*
X115686525Y-61906632D01*
X115893368Y-62113475D01*
X116136589Y-62275990D01*
X116406842Y-62387932D01*
X116693740Y-62445000D01*
X116986260Y-62445000D01*
X117273158Y-62387932D01*
X117543411Y-62275990D01*
X117786632Y-62113475D01*
X117993475Y-61906632D01*
X118110000Y-61732240D01*
X118226525Y-61906632D01*
X118433368Y-62113475D01*
X118676589Y-62275990D01*
X118946842Y-62387932D01*
X119233740Y-62445000D01*
X119526260Y-62445000D01*
X119813158Y-62387932D01*
X120083411Y-62275990D01*
X120326632Y-62113475D01*
X120533475Y-61906632D01*
X120650000Y-61732240D01*
X120766525Y-61906632D01*
X120973368Y-62113475D01*
X121216589Y-62275990D01*
X121486842Y-62387932D01*
X121773740Y-62445000D01*
X122066260Y-62445000D01*
X122353158Y-62387932D01*
X122623411Y-62275990D01*
X122866632Y-62113475D01*
X123073475Y-61906632D01*
X123190000Y-61732240D01*
X123306525Y-61906632D01*
X123513368Y-62113475D01*
X123756589Y-62275990D01*
X124026842Y-62387932D01*
X124313740Y-62445000D01*
X124606260Y-62445000D01*
X124893158Y-62387932D01*
X125163411Y-62275990D01*
X125406632Y-62113475D01*
X125613475Y-61906632D01*
X125730000Y-61732240D01*
X125846525Y-61906632D01*
X126053368Y-62113475D01*
X126296589Y-62275990D01*
X126566842Y-62387932D01*
X126853740Y-62445000D01*
X127146260Y-62445000D01*
X127433158Y-62387932D01*
X127703411Y-62275990D01*
X127946632Y-62113475D01*
X128153475Y-61906632D01*
X128270000Y-61732240D01*
X128386525Y-61906632D01*
X128593368Y-62113475D01*
X128836589Y-62275990D01*
X129106842Y-62387932D01*
X129393740Y-62445000D01*
X129686260Y-62445000D01*
X129973158Y-62387932D01*
X130243411Y-62275990D01*
X130486632Y-62113475D01*
X130693475Y-61906632D01*
X130815195Y-61724466D01*
X130884822Y-61841355D01*
X131079731Y-62057588D01*
X131313080Y-62231641D01*
X131575901Y-62356825D01*
X131723110Y-62401476D01*
X131953000Y-62280155D01*
X131953000Y-61087000D01*
X132207000Y-61087000D01*
X132207000Y-62280155D01*
X132436890Y-62401476D01*
X132584099Y-62356825D01*
X132846920Y-62231641D01*
X133080269Y-62057588D01*
X133275178Y-61841355D01*
X133424157Y-61591252D01*
X133521481Y-61316891D01*
X133400814Y-61087000D01*
X132207000Y-61087000D01*
X131953000Y-61087000D01*
X131933000Y-61087000D01*
X131933000Y-60833000D01*
X131953000Y-60833000D01*
X131953000Y-60813000D01*
X132207000Y-60813000D01*
X132207000Y-60833000D01*
X133400814Y-60833000D01*
X133521481Y-60603109D01*
X133424157Y-60328748D01*
X133275178Y-60078645D01*
X133080269Y-59862412D01*
X132850594Y-59691100D01*
X133026632Y-59573475D01*
X133233475Y-59366632D01*
X133395990Y-59123411D01*
X133507932Y-58853158D01*
X133565000Y-58566260D01*
X133565000Y-58273740D01*
X133507932Y-57986842D01*
X133395990Y-57716589D01*
X133233475Y-57473368D01*
X133026632Y-57266525D01*
X132783411Y-57104010D01*
X132513158Y-56992068D01*
X132226260Y-56935000D01*
X131933740Y-56935000D01*
X131646842Y-56992068D01*
X131376589Y-57104010D01*
X131133368Y-57266525D01*
X130926525Y-57473368D01*
X130810000Y-57647760D01*
X130693475Y-57473368D01*
X130486632Y-57266525D01*
X130243411Y-57104010D01*
X129973158Y-56992068D01*
X129686260Y-56935000D01*
X129393740Y-56935000D01*
X129106842Y-56992068D01*
X128836589Y-57104010D01*
X128593368Y-57266525D01*
X128386525Y-57473368D01*
X128270000Y-57647760D01*
X128153475Y-57473368D01*
X127946632Y-57266525D01*
X127703411Y-57104010D01*
X127433158Y-56992068D01*
X127146260Y-56935000D01*
X126853740Y-56935000D01*
X126566842Y-56992068D01*
X126296589Y-57104010D01*
X126053368Y-57266525D01*
X125846525Y-57473368D01*
X125724805Y-57655534D01*
X125655178Y-57538645D01*
X125460269Y-57322412D01*
X125226920Y-57148359D01*
X124964099Y-57023175D01*
X124816890Y-56978524D01*
X124587000Y-57099845D01*
X124587000Y-58293000D01*
X124607000Y-58293000D01*
X124607000Y-58547000D01*
X124587000Y-58547000D01*
X124587000Y-58567000D01*
X124333000Y-58567000D01*
X124333000Y-58547000D01*
X124313000Y-58547000D01*
X124313000Y-58293000D01*
X124333000Y-58293000D01*
X124333000Y-57099845D01*
X124103110Y-56978524D01*
X123955901Y-57023175D01*
X123693080Y-57148359D01*
X123459731Y-57322412D01*
X123264822Y-57538645D01*
X123195195Y-57655534D01*
X123073475Y-57473368D01*
X122866632Y-57266525D01*
X122623411Y-57104010D01*
X122353158Y-56992068D01*
X122066260Y-56935000D01*
X121773740Y-56935000D01*
X121486842Y-56992068D01*
X121216589Y-57104010D01*
X120973368Y-57266525D01*
X120766525Y-57473368D01*
X120644805Y-57655534D01*
X120575178Y-57538645D01*
X120380269Y-57322412D01*
X120146920Y-57148359D01*
X119884099Y-57023175D01*
X119736890Y-56978524D01*
X119507000Y-57099845D01*
X119507000Y-58293000D01*
X119527000Y-58293000D01*
X119527000Y-58547000D01*
X119507000Y-58547000D01*
X119507000Y-58567000D01*
X119253000Y-58567000D01*
X119253000Y-58547000D01*
X119233000Y-58547000D01*
X119233000Y-58293000D01*
X119253000Y-58293000D01*
X119253000Y-57099845D01*
X119023110Y-56978524D01*
X118875901Y-57023175D01*
X118613080Y-57148359D01*
X118379731Y-57322412D01*
X118184822Y-57538645D01*
X118115195Y-57655534D01*
X117993475Y-57473368D01*
X117786632Y-57266525D01*
X117543411Y-57104010D01*
X117273158Y-56992068D01*
X116986260Y-56935000D01*
X116693740Y-56935000D01*
X116406842Y-56992068D01*
X116136589Y-57104010D01*
X115893368Y-57266525D01*
X115686525Y-57473368D01*
X115570000Y-57647760D01*
X115453475Y-57473368D01*
X115246632Y-57266525D01*
X115003411Y-57104010D01*
X114733158Y-56992068D01*
X114446260Y-56935000D01*
X114153740Y-56935000D01*
X113866842Y-56992068D01*
X113596589Y-57104010D01*
X113353368Y-57266525D01*
X113146525Y-57473368D01*
X113030000Y-57647760D01*
X112913475Y-57473368D01*
X112706632Y-57266525D01*
X112463411Y-57104010D01*
X112193158Y-56992068D01*
X111906260Y-56935000D01*
X111613740Y-56935000D01*
X111326842Y-56992068D01*
X111056589Y-57104010D01*
X110813368Y-57266525D01*
X110606525Y-57473368D01*
X110490000Y-57647760D01*
X110373475Y-57473368D01*
X110166632Y-57266525D01*
X109923411Y-57104010D01*
X109653158Y-56992068D01*
X109366260Y-56935000D01*
X109073740Y-56935000D01*
X108786842Y-56992068D01*
X108516589Y-57104010D01*
X108273368Y-57266525D01*
X108066525Y-57473368D01*
X107944805Y-57655534D01*
X107875178Y-57538645D01*
X107680269Y-57322412D01*
X107446920Y-57148359D01*
X107184099Y-57023175D01*
X107036890Y-56978524D01*
X106807000Y-57099845D01*
X106807000Y-58293000D01*
X106827000Y-58293000D01*
X106827000Y-58547000D01*
X106807000Y-58547000D01*
X106807000Y-58567000D01*
X106553000Y-58567000D01*
X106553000Y-58547000D01*
X106533000Y-58547000D01*
X106533000Y-58293000D01*
X106553000Y-58293000D01*
X106553000Y-57099845D01*
X106323110Y-56978524D01*
X106175901Y-57023175D01*
X105913080Y-57148359D01*
X105679731Y-57322412D01*
X105484822Y-57538645D01*
X105415195Y-57655534D01*
X105293475Y-57473368D01*
X105086632Y-57266525D01*
X104843411Y-57104010D01*
X104573158Y-56992068D01*
X104286260Y-56935000D01*
X103993740Y-56935000D01*
X103706842Y-56992068D01*
X103436589Y-57104010D01*
X103193368Y-57266525D01*
X102986525Y-57473368D01*
X102870000Y-57647760D01*
X102753475Y-57473368D01*
X102546632Y-57266525D01*
X102303411Y-57104010D01*
X102033158Y-56992068D01*
X101746260Y-56935000D01*
X101453740Y-56935000D01*
X101166842Y-56992068D01*
X100896589Y-57104010D01*
X100653368Y-57266525D01*
X100446525Y-57473368D01*
X100324805Y-57655534D01*
X100255178Y-57538645D01*
X100060269Y-57322412D01*
X99826920Y-57148359D01*
X99564099Y-57023175D01*
X99416890Y-56978524D01*
X99187000Y-57099845D01*
X99187000Y-58293000D01*
X99207000Y-58293000D01*
X99207000Y-58547000D01*
X99187000Y-58547000D01*
X99187000Y-58567000D01*
X98933000Y-58567000D01*
X98933000Y-58547000D01*
X98913000Y-58547000D01*
X98913000Y-58293000D01*
X98933000Y-58293000D01*
X98933000Y-57099845D01*
X98703110Y-56978524D01*
X98555901Y-57023175D01*
X98293080Y-57148359D01*
X98059731Y-57322412D01*
X97864822Y-57538645D01*
X97795195Y-57655534D01*
X97673475Y-57473368D01*
X97466632Y-57266525D01*
X97223411Y-57104010D01*
X96953158Y-56992068D01*
X96666260Y-56935000D01*
X96373740Y-56935000D01*
X96086842Y-56992068D01*
X95816589Y-57104010D01*
X95573368Y-57266525D01*
X95366525Y-57473368D01*
X95250000Y-57647760D01*
X95133475Y-57473368D01*
X94926632Y-57266525D01*
X94683411Y-57104010D01*
X94413158Y-56992068D01*
X94126260Y-56935000D01*
X93833740Y-56935000D01*
X93546842Y-56992068D01*
X93276589Y-57104010D01*
X93033368Y-57266525D01*
X92826525Y-57473368D01*
X92710000Y-57647760D01*
X92593475Y-57473368D01*
X92386632Y-57266525D01*
X92143411Y-57104010D01*
X91873158Y-56992068D01*
X91586260Y-56935000D01*
X91293740Y-56935000D01*
X91006842Y-56992068D01*
X90736589Y-57104010D01*
X90493368Y-57266525D01*
X90286525Y-57473368D01*
X90164805Y-57655534D01*
X90095178Y-57538645D01*
X89900269Y-57322412D01*
X89666920Y-57148359D01*
X89404099Y-57023175D01*
X89256890Y-56978524D01*
X89027000Y-57099845D01*
X89027000Y-58293000D01*
X89047000Y-58293000D01*
X89047000Y-58547000D01*
X89027000Y-58547000D01*
X89027000Y-58567000D01*
X88773000Y-58567000D01*
X88773000Y-58547000D01*
X88753000Y-58547000D01*
X88753000Y-58293000D01*
X88773000Y-58293000D01*
X88773000Y-57099845D01*
X88543110Y-56978524D01*
X88395901Y-57023175D01*
X88133080Y-57148359D01*
X87899731Y-57322412D01*
X87704822Y-57538645D01*
X87635195Y-57655534D01*
X87513475Y-57473368D01*
X87306632Y-57266525D01*
X87063411Y-57104010D01*
X86793158Y-56992068D01*
X86506260Y-56935000D01*
X86213740Y-56935000D01*
X85926842Y-56992068D01*
X85656589Y-57104010D01*
X85413368Y-57266525D01*
X85206525Y-57473368D01*
X85090000Y-57647760D01*
X84973475Y-57473368D01*
X84766632Y-57266525D01*
X84523411Y-57104010D01*
X84253158Y-56992068D01*
X83966260Y-56935000D01*
X83673740Y-56935000D01*
X83386842Y-56992068D01*
X83116589Y-57104010D01*
X82873368Y-57266525D01*
X82666525Y-57473368D01*
X82504010Y-57716589D01*
X82392068Y-57986842D01*
X82335000Y-58273740D01*
X82335000Y-58566260D01*
X82392068Y-58853158D01*
X82504010Y-59123411D01*
X82666525Y-59366632D01*
X82798380Y-59498487D01*
X82725820Y-59520498D01*
X82615506Y-59579463D01*
X82518815Y-59658815D01*
X82439463Y-59755506D01*
X82380498Y-59865820D01*
X82344188Y-59985518D01*
X82331928Y-60110000D01*
X80578386Y-60110000D01*
X80625000Y-59875656D01*
X80625000Y-59504344D01*
X80552561Y-59140166D01*
X80410466Y-58797118D01*
X80204175Y-58488382D01*
X79941618Y-58225825D01*
X79632882Y-58019534D01*
X79289834Y-57877439D01*
X78925656Y-57805000D01*
X78554344Y-57805000D01*
X78190166Y-57877439D01*
X77847118Y-58019534D01*
X77538382Y-58225825D01*
X77275825Y-58488382D01*
X77069534Y-58797118D01*
X76927439Y-59140166D01*
X76855000Y-59504344D01*
X76327000Y-59504344D01*
X76327000Y-54737000D01*
X138303000Y-54737000D01*
X138303000Y-58186658D01*
%TA.AperFunction,Conductor*%
D22*
G36*
X138303000Y-58186658D02*
G01*
X138052882Y-58019534D01*
X137709834Y-57877439D01*
X137345656Y-57805000D01*
X136974344Y-57805000D01*
X136610166Y-57877439D01*
X136267118Y-58019534D01*
X135958382Y-58225825D01*
X135695825Y-58488382D01*
X135489534Y-58797118D01*
X135347439Y-59140166D01*
X135275000Y-59504344D01*
X135275000Y-59875656D01*
X135347439Y-60239834D01*
X135489534Y-60582882D01*
X135695825Y-60891618D01*
X135958382Y-61154175D01*
X136267118Y-61360466D01*
X136610166Y-61502561D01*
X136974344Y-61575000D01*
X137345656Y-61575000D01*
X137709834Y-61502561D01*
X138052882Y-61360466D01*
X138303000Y-61193342D01*
X138303000Y-76073000D01*
X76327000Y-76073000D01*
X76327000Y-73533040D01*
X85070950Y-73533040D01*
X85070950Y-73786960D01*
X85120488Y-74036002D01*
X85217659Y-74270594D01*
X85358730Y-74481721D01*
X85538279Y-74661270D01*
X85749406Y-74802341D01*
X85983998Y-74899512D01*
X86233040Y-74949050D01*
X86486960Y-74949050D01*
X86736002Y-74899512D01*
X86970594Y-74802341D01*
X87181721Y-74661270D01*
X87294569Y-74548422D01*
X88191183Y-74548422D01*
X88245063Y-74777509D01*
X88475663Y-74883809D01*
X88722570Y-74943078D01*
X88976295Y-74953039D01*
X89227089Y-74913309D01*
X89465312Y-74825415D01*
X89554937Y-74777509D01*
X89608817Y-74548422D01*
X88900000Y-73839605D01*
X88191183Y-74548422D01*
X87294569Y-74548422D01*
X87361270Y-74481721D01*
X87502341Y-74270594D01*
X87599512Y-74036002D01*
X87630088Y-73882286D01*
X87646691Y-73987089D01*
X87734585Y-74225312D01*
X87782491Y-74314937D01*
X88011578Y-74368817D01*
X88720395Y-73660000D01*
X89079605Y-73660000D01*
X89788422Y-74368817D01*
X90017509Y-74314937D01*
X90123809Y-74084337D01*
X90170999Y-73887751D01*
X90200488Y-74036002D01*
X90297659Y-74270594D01*
X90438730Y-74481721D01*
X90618279Y-74661270D01*
X90829406Y-74802341D01*
X91063998Y-74899512D01*
X91313040Y-74949050D01*
X91566960Y-74949050D01*
X91816002Y-74899512D01*
X92050594Y-74802341D01*
X92261721Y-74661270D01*
X92441270Y-74481721D01*
X92582341Y-74270594D01*
X92679512Y-74036002D01*
X92710000Y-73882730D01*
X92740488Y-74036002D01*
X92837659Y-74270594D01*
X92978730Y-74481721D01*
X93158279Y-74661270D01*
X93369406Y-74802341D01*
X93603998Y-74899512D01*
X93853040Y-74949050D01*
X94106960Y-74949050D01*
X94356002Y-74899512D01*
X94590594Y-74802341D01*
X94801721Y-74661270D01*
X94981270Y-74481721D01*
X95122341Y-74270594D01*
X95219512Y-74036002D01*
X95269050Y-73786960D01*
X95269050Y-73533040D01*
X121900950Y-73533040D01*
X121900950Y-73786960D01*
X121950488Y-74036002D01*
X122047659Y-74270594D01*
X122188730Y-74481721D01*
X122368279Y-74661270D01*
X122579406Y-74802341D01*
X122813998Y-74899512D01*
X123063040Y-74949050D01*
X123316960Y-74949050D01*
X123566002Y-74899512D01*
X123800594Y-74802341D01*
X124011721Y-74661270D01*
X124191270Y-74481721D01*
X124332341Y-74270594D01*
X124429512Y-74036002D01*
X124460000Y-73882730D01*
X124490488Y-74036002D01*
X124587659Y-74270594D01*
X124728730Y-74481721D01*
X124908279Y-74661270D01*
X125119406Y-74802341D01*
X125353998Y-74899512D01*
X125603040Y-74949050D01*
X125856960Y-74949050D01*
X126106002Y-74899512D01*
X126340594Y-74802341D01*
X126551721Y-74661270D01*
X126731270Y-74481721D01*
X126872341Y-74270594D01*
X126969512Y-74036002D01*
X127000000Y-73882730D01*
X127030488Y-74036002D01*
X127127659Y-74270594D01*
X127268730Y-74481721D01*
X127448279Y-74661270D01*
X127659406Y-74802341D01*
X127893998Y-74899512D01*
X128143040Y-74949050D01*
X128396960Y-74949050D01*
X128646002Y-74899512D01*
X128880594Y-74802341D01*
X129091721Y-74661270D01*
X129271270Y-74481721D01*
X129412341Y-74270594D01*
X129509512Y-74036002D01*
X129540000Y-73882730D01*
X129570488Y-74036002D01*
X129667659Y-74270594D01*
X129808730Y-74481721D01*
X129988279Y-74661270D01*
X130199406Y-74802341D01*
X130433998Y-74899512D01*
X130683040Y-74949050D01*
X130936960Y-74949050D01*
X131186002Y-74899512D01*
X131420594Y-74802341D01*
X131631721Y-74661270D01*
X131811270Y-74481721D01*
X131952341Y-74270594D01*
X132049512Y-74036002D01*
X132099050Y-73786960D01*
X132099050Y-73533040D01*
X132049512Y-73283998D01*
X131952341Y-73049406D01*
X131811270Y-72838279D01*
X131631721Y-72658730D01*
X131420594Y-72517659D01*
X131186002Y-72420488D01*
X130936960Y-72370950D01*
X130683040Y-72370950D01*
X130433998Y-72420488D01*
X130199406Y-72517659D01*
X129988279Y-72658730D01*
X129808730Y-72838279D01*
X129667659Y-73049406D01*
X129570488Y-73283998D01*
X129540000Y-73437270D01*
X129509512Y-73283998D01*
X129412341Y-73049406D01*
X129271270Y-72838279D01*
X129091721Y-72658730D01*
X128880594Y-72517659D01*
X128646002Y-72420488D01*
X128396960Y-72370950D01*
X128143040Y-72370950D01*
X127893998Y-72420488D01*
X127659406Y-72517659D01*
X127448279Y-72658730D01*
X127268730Y-72838279D01*
X127127659Y-73049406D01*
X127030488Y-73283998D01*
X127000000Y-73437270D01*
X126969512Y-73283998D01*
X126872341Y-73049406D01*
X126731270Y-72838279D01*
X126551721Y-72658730D01*
X126340594Y-72517659D01*
X126106002Y-72420488D01*
X125856960Y-72370950D01*
X125603040Y-72370950D01*
X125353998Y-72420488D01*
X125119406Y-72517659D01*
X124908279Y-72658730D01*
X124728730Y-72838279D01*
X124587659Y-73049406D01*
X124490488Y-73283998D01*
X124460000Y-73437270D01*
X124429512Y-73283998D01*
X124332341Y-73049406D01*
X124191270Y-72838279D01*
X124011721Y-72658730D01*
X123800594Y-72517659D01*
X123566002Y-72420488D01*
X123316960Y-72370950D01*
X123063040Y-72370950D01*
X122813998Y-72420488D01*
X122579406Y-72517659D01*
X122368279Y-72658730D01*
X122188730Y-72838279D01*
X122047659Y-73049406D01*
X121950488Y-73283998D01*
X121900950Y-73533040D01*
X95269050Y-73533040D01*
X95219512Y-73283998D01*
X95122341Y-73049406D01*
X94981270Y-72838279D01*
X94801721Y-72658730D01*
X94590594Y-72517659D01*
X94356002Y-72420488D01*
X94106960Y-72370950D01*
X93853040Y-72370950D01*
X93603998Y-72420488D01*
X93369406Y-72517659D01*
X93158279Y-72658730D01*
X92978730Y-72838279D01*
X92837659Y-73049406D01*
X92740488Y-73283998D01*
X92710000Y-73437270D01*
X92679512Y-73283998D01*
X92582341Y-73049406D01*
X92441270Y-72838279D01*
X92261721Y-72658730D01*
X92050594Y-72517659D01*
X91816002Y-72420488D01*
X91566960Y-72370950D01*
X91313040Y-72370950D01*
X91063998Y-72420488D01*
X90829406Y-72517659D01*
X90618279Y-72658730D01*
X90438730Y-72838279D01*
X90297659Y-73049406D01*
X90200488Y-73283998D01*
X90169912Y-73437714D01*
X90153309Y-73332911D01*
X90065415Y-73094688D01*
X90017509Y-73005063D01*
X89788422Y-72951183D01*
X89079605Y-73660000D01*
X88720395Y-73660000D01*
X88011578Y-72951183D01*
X87782491Y-73005063D01*
X87676191Y-73235663D01*
X87629001Y-73432249D01*
X87599512Y-73283998D01*
X87502341Y-73049406D01*
X87361270Y-72838279D01*
X87294569Y-72771578D01*
X88191183Y-72771578D01*
X88900000Y-73480395D01*
X89608817Y-72771578D01*
X89554937Y-72542491D01*
X89324337Y-72436191D01*
X89077430Y-72376922D01*
X88823705Y-72366961D01*
X88572911Y-72406691D01*
X88334688Y-72494585D01*
X88245063Y-72542491D01*
X88191183Y-72771578D01*
X87294569Y-72771578D01*
X87181721Y-72658730D01*
X86970594Y-72517659D01*
X86736002Y-72420488D01*
X86486960Y-72370950D01*
X86233040Y-72370950D01*
X85983998Y-72420488D01*
X85749406Y-72517659D01*
X85538279Y-72658730D01*
X85358730Y-72838279D01*
X85217659Y-73049406D01*
X85120488Y-73283998D01*
X85070950Y-73533040D01*
X76327000Y-73533040D01*
X76327000Y-66040000D01*
X77349388Y-66040000D01*
X77371785Y-66267400D01*
X77438115Y-66486060D01*
X77539105Y-66675000D01*
X77438115Y-66863940D01*
X77371785Y-67082600D01*
X77349388Y-67310000D01*
X77371785Y-67537400D01*
X77435093Y-67746098D01*
X77400498Y-67810820D01*
X77364188Y-67930518D01*
X77351928Y-68055000D01*
X77351928Y-69105000D01*
X77364188Y-69229482D01*
X77400498Y-69349180D01*
X77459463Y-69459494D01*
X77538815Y-69556185D01*
X77635506Y-69635537D01*
X77745820Y-69694502D01*
X77865518Y-69730812D01*
X77990000Y-69743072D01*
X79490000Y-69743072D01*
X79614482Y-69730812D01*
X79687490Y-69708665D01*
X81115000Y-69708665D01*
X81115000Y-69991335D01*
X81170147Y-70268574D01*
X81278320Y-70529727D01*
X81435363Y-70764759D01*
X81635241Y-70964637D01*
X81870273Y-71121680D01*
X82131426Y-71229853D01*
X82408665Y-71285000D01*
X82691335Y-71285000D01*
X82968574Y-71229853D01*
X83229727Y-71121680D01*
X83464759Y-70964637D01*
X83664637Y-70764759D01*
X83821680Y-70529727D01*
X83929853Y-70268574D01*
X83985000Y-69991335D01*
X83985000Y-69708665D01*
X96355000Y-69708665D01*
X96355000Y-69991335D01*
X96410147Y-70268574D01*
X96518320Y-70529727D01*
X96675363Y-70764759D01*
X96875241Y-70964637D01*
X97110273Y-71121680D01*
X97371426Y-71229853D01*
X97648665Y-71285000D01*
X97931335Y-71285000D01*
X98208574Y-71229853D01*
X98469727Y-71121680D01*
X98704759Y-70964637D01*
X98904637Y-70764759D01*
X99061680Y-70529727D01*
X99169853Y-70268574D01*
X99225000Y-69991335D01*
X99225000Y-69708665D01*
X103975000Y-69708665D01*
X103975000Y-69991335D01*
X104030147Y-70268574D01*
X104138320Y-70529727D01*
X104295363Y-70764759D01*
X104495241Y-70964637D01*
X104730273Y-71121680D01*
X104991426Y-71229853D01*
X105268665Y-71285000D01*
X105551335Y-71285000D01*
X105828574Y-71229853D01*
X106089727Y-71121680D01*
X106324759Y-70964637D01*
X106524637Y-70764759D01*
X106681680Y-70529727D01*
X106789853Y-70268574D01*
X106845000Y-69991335D01*
X106845000Y-69708665D01*
X119215000Y-69708665D01*
X119215000Y-69991335D01*
X119270147Y-70268574D01*
X119378320Y-70529727D01*
X119535363Y-70764759D01*
X119735241Y-70964637D01*
X119970273Y-71121680D01*
X120231426Y-71229853D01*
X120508665Y-71285000D01*
X120791335Y-71285000D01*
X121068574Y-71229853D01*
X121329727Y-71121680D01*
X121564759Y-70964637D01*
X121764637Y-70764759D01*
X121921680Y-70529727D01*
X122029853Y-70268574D01*
X122085000Y-69991335D01*
X122085000Y-69708665D01*
X122029853Y-69431426D01*
X121921680Y-69170273D01*
X121764637Y-68935241D01*
X121564759Y-68735363D01*
X121329727Y-68578320D01*
X121068574Y-68470147D01*
X120791335Y-68415000D01*
X120508665Y-68415000D01*
X120231426Y-68470147D01*
X119970273Y-68578320D01*
X119735241Y-68735363D01*
X119535363Y-68935241D01*
X119378320Y-69170273D01*
X119270147Y-69431426D01*
X119215000Y-69708665D01*
X106845000Y-69708665D01*
X106789853Y-69431426D01*
X106681680Y-69170273D01*
X106524637Y-68935241D01*
X106324759Y-68735363D01*
X106089727Y-68578320D01*
X105828574Y-68470147D01*
X105551335Y-68415000D01*
X105268665Y-68415000D01*
X104991426Y-68470147D01*
X104730273Y-68578320D01*
X104495241Y-68735363D01*
X104295363Y-68935241D01*
X104138320Y-69170273D01*
X104030147Y-69431426D01*
X103975000Y-69708665D01*
X99225000Y-69708665D01*
X99169853Y-69431426D01*
X99061680Y-69170273D01*
X98904637Y-68935241D01*
X98704759Y-68735363D01*
X98469727Y-68578320D01*
X98208574Y-68470147D01*
X97931335Y-68415000D01*
X97648665Y-68415000D01*
X97371426Y-68470147D01*
X97110273Y-68578320D01*
X96875241Y-68735363D01*
X96675363Y-68935241D01*
X96518320Y-69170273D01*
X96410147Y-69431426D01*
X96355000Y-69708665D01*
X83985000Y-69708665D01*
X83929853Y-69431426D01*
X83821680Y-69170273D01*
X83664637Y-68935241D01*
X83464759Y-68735363D01*
X83229727Y-68578320D01*
X82968574Y-68470147D01*
X82691335Y-68415000D01*
X82408665Y-68415000D01*
X82131426Y-68470147D01*
X81870273Y-68578320D01*
X81635241Y-68735363D01*
X81435363Y-68935241D01*
X81278320Y-69170273D01*
X81170147Y-69431426D01*
X81115000Y-69708665D01*
X79687490Y-69708665D01*
X79734180Y-69694502D01*
X79844494Y-69635537D01*
X79941185Y-69556185D01*
X80020537Y-69459494D01*
X80079502Y-69349180D01*
X80115812Y-69229482D01*
X80128072Y-69105000D01*
X80128072Y-68055000D01*
X80115812Y-67930518D01*
X80079502Y-67810820D01*
X80044907Y-67746098D01*
X80108215Y-67537400D01*
X80130612Y-67310000D01*
X80108215Y-67082600D01*
X80093079Y-67032702D01*
X104596903Y-67032702D01*
X104668486Y-67276671D01*
X104923996Y-67397571D01*
X105198184Y-67466300D01*
X105480512Y-67480217D01*
X105760130Y-67438787D01*
X106026292Y-67343603D01*
X106151514Y-67276671D01*
X106223097Y-67032702D01*
X105410000Y-66219605D01*
X104596903Y-67032702D01*
X80093079Y-67032702D01*
X80041885Y-66863940D01*
X79940895Y-66675000D01*
X80041885Y-66486060D01*
X80108215Y-66267400D01*
X80123667Y-66110512D01*
X103969783Y-66110512D01*
X104011213Y-66390130D01*
X104106397Y-66656292D01*
X104173329Y-66781514D01*
X104417298Y-66853097D01*
X105230395Y-66040000D01*
X105589605Y-66040000D01*
X106402702Y-66853097D01*
X106646671Y-66781514D01*
X106767571Y-66526004D01*
X106836300Y-66251816D01*
X106850217Y-65969488D01*
X106839724Y-65898665D01*
X119215000Y-65898665D01*
X119215000Y-66181335D01*
X119270147Y-66458574D01*
X119378320Y-66719727D01*
X119535363Y-66954759D01*
X119735241Y-67154637D01*
X119970273Y-67311680D01*
X120231426Y-67419853D01*
X120508665Y-67475000D01*
X120791335Y-67475000D01*
X121068574Y-67419853D01*
X121329727Y-67311680D01*
X121564759Y-67154637D01*
X121764637Y-66954759D01*
X121921680Y-66719727D01*
X122029853Y-66458574D01*
X122085000Y-66181335D01*
X122085000Y-65898665D01*
X122029853Y-65621426D01*
X121921680Y-65360273D01*
X121764637Y-65125241D01*
X121564759Y-64925363D01*
X121329727Y-64768320D01*
X121068574Y-64660147D01*
X120791335Y-64605000D01*
X120508665Y-64605000D01*
X120231426Y-64660147D01*
X119970273Y-64768320D01*
X119735241Y-64925363D01*
X119535363Y-65125241D01*
X119378320Y-65360273D01*
X119270147Y-65621426D01*
X119215000Y-65898665D01*
X106839724Y-65898665D01*
X106808787Y-65689870D01*
X106713603Y-65423708D01*
X106646671Y-65298486D01*
X106402702Y-65226903D01*
X105589605Y-66040000D01*
X105230395Y-66040000D01*
X104417298Y-65226903D01*
X104173329Y-65298486D01*
X104052429Y-65553996D01*
X103983700Y-65828184D01*
X103969783Y-66110512D01*
X80123667Y-66110512D01*
X80130612Y-66040000D01*
X80108215Y-65812600D01*
X80041885Y-65593940D01*
X79934171Y-65392421D01*
X79789212Y-65215788D01*
X79612579Y-65070829D01*
X79568556Y-65047298D01*
X104596903Y-65047298D01*
X105410000Y-65860395D01*
X106223097Y-65047298D01*
X106151514Y-64803329D01*
X105896004Y-64682429D01*
X105621816Y-64613700D01*
X105339488Y-64599783D01*
X105059870Y-64641213D01*
X104793708Y-64736397D01*
X104668486Y-64803329D01*
X104596903Y-65047298D01*
X79568556Y-65047298D01*
X79411060Y-64963115D01*
X79192400Y-64896785D01*
X79021979Y-64880000D01*
X78458021Y-64880000D01*
X78287600Y-64896785D01*
X78068940Y-64963115D01*
X77867421Y-65070829D01*
X77690788Y-65215788D01*
X77545829Y-65392421D01*
X77438115Y-65593940D01*
X77371785Y-65812600D01*
X77349388Y-66040000D01*
X76327000Y-66040000D01*
X76327000Y-59504344D01*
X76855000Y-59504344D01*
X76855000Y-59875656D01*
X76927439Y-60239834D01*
X77069534Y-60582882D01*
X77275825Y-60891618D01*
X77538382Y-61154175D01*
X77847118Y-61360466D01*
X78190166Y-61502561D01*
X78554344Y-61575000D01*
X78925656Y-61575000D01*
X79289834Y-61502561D01*
X79632882Y-61360466D01*
X79941618Y-61154175D01*
X80204175Y-60891618D01*
X80410466Y-60582882D01*
X80552561Y-60239834D01*
X80578386Y-60110000D01*
X82331928Y-60110000D01*
X82331928Y-61810000D01*
X82344188Y-61934482D01*
X82380498Y-62054180D01*
X82439463Y-62164494D01*
X82518815Y-62261185D01*
X82615506Y-62340537D01*
X82725820Y-62399502D01*
X82845518Y-62435812D01*
X82970000Y-62448072D01*
X84670000Y-62448072D01*
X84794482Y-62435812D01*
X84914180Y-62399502D01*
X85024494Y-62340537D01*
X85121185Y-62261185D01*
X85200537Y-62164494D01*
X85259502Y-62054180D01*
X85281513Y-61981620D01*
X85413368Y-62113475D01*
X85656589Y-62275990D01*
X85926842Y-62387932D01*
X86213740Y-62445000D01*
X86506260Y-62445000D01*
X86793158Y-62387932D01*
X87063411Y-62275990D01*
X87306632Y-62113475D01*
X87513475Y-61906632D01*
X87630000Y-61732240D01*
X87746525Y-61906632D01*
X87953368Y-62113475D01*
X88196589Y-62275990D01*
X88466842Y-62387932D01*
X88753740Y-62445000D01*
X89046260Y-62445000D01*
X89333158Y-62387932D01*
X89603411Y-62275990D01*
X89846632Y-62113475D01*
X90053475Y-61906632D01*
X90170000Y-61732240D01*
X90286525Y-61906632D01*
X90493368Y-62113475D01*
X90736589Y-62275990D01*
X91006842Y-62387932D01*
X91293740Y-62445000D01*
X91586260Y-62445000D01*
X91873158Y-62387932D01*
X92143411Y-62275990D01*
X92386632Y-62113475D01*
X92593475Y-61906632D01*
X92715195Y-61724466D01*
X92784822Y-61841355D01*
X92979731Y-62057588D01*
X93213080Y-62231641D01*
X93475901Y-62356825D01*
X93623110Y-62401476D01*
X93853000Y-62280155D01*
X93853000Y-61087000D01*
X93833000Y-61087000D01*
X93833000Y-60833000D01*
X93853000Y-60833000D01*
X93853000Y-60813000D01*
X94107000Y-60813000D01*
X94107000Y-60833000D01*
X94127000Y-60833000D01*
X94127000Y-61087000D01*
X94107000Y-61087000D01*
X94107000Y-62280155D01*
X94336890Y-62401476D01*
X94484099Y-62356825D01*
X94746920Y-62231641D01*
X94980269Y-62057588D01*
X95175178Y-61841355D01*
X95244805Y-61724466D01*
X95366525Y-61906632D01*
X95573368Y-62113475D01*
X95816589Y-62275990D01*
X96086842Y-62387932D01*
X96373740Y-62445000D01*
X96666260Y-62445000D01*
X96953158Y-62387932D01*
X97223411Y-62275990D01*
X97466632Y-62113475D01*
X97673475Y-61906632D01*
X97790000Y-61732240D01*
X97906525Y-61906632D01*
X98113368Y-62113475D01*
X98356589Y-62275990D01*
X98626842Y-62387932D01*
X98913740Y-62445000D01*
X99206260Y-62445000D01*
X99493158Y-62387932D01*
X99763411Y-62275990D01*
X100006632Y-62113475D01*
X100213475Y-61906632D01*
X100330000Y-61732240D01*
X100446525Y-61906632D01*
X100653368Y-62113475D01*
X100896589Y-62275990D01*
X101166842Y-62387932D01*
X101453740Y-62445000D01*
X101746260Y-62445000D01*
X102033158Y-62387932D01*
X102303411Y-62275990D01*
X102546632Y-62113475D01*
X102753475Y-61906632D01*
X102870000Y-61732240D01*
X102986525Y-61906632D01*
X103193368Y-62113475D01*
X103436589Y-62275990D01*
X103706842Y-62387932D01*
X103993740Y-62445000D01*
X104286260Y-62445000D01*
X104573158Y-62387932D01*
X104843411Y-62275990D01*
X105086632Y-62113475D01*
X105293475Y-61906632D01*
X105410000Y-61732240D01*
X105526525Y-61906632D01*
X105733368Y-62113475D01*
X105976589Y-62275990D01*
X106246842Y-62387932D01*
X106533740Y-62445000D01*
X106826260Y-62445000D01*
X107113158Y-62387932D01*
X107383411Y-62275990D01*
X107626632Y-62113475D01*
X107833475Y-61906632D01*
X107950000Y-61732240D01*
X108066525Y-61906632D01*
X108273368Y-62113475D01*
X108516589Y-62275990D01*
X108786842Y-62387932D01*
X109073740Y-62445000D01*
X109366260Y-62445000D01*
X109653158Y-62387932D01*
X109923411Y-62275990D01*
X110166632Y-62113475D01*
X110373475Y-61906632D01*
X110490000Y-61732240D01*
X110606525Y-61906632D01*
X110813368Y-62113475D01*
X111056589Y-62275990D01*
X111326842Y-62387932D01*
X111613740Y-62445000D01*
X111906260Y-62445000D01*
X112193158Y-62387932D01*
X112463411Y-62275990D01*
X112706632Y-62113475D01*
X112913475Y-61906632D01*
X113035195Y-61724466D01*
X113104822Y-61841355D01*
X113299731Y-62057588D01*
X113533080Y-62231641D01*
X113795901Y-62356825D01*
X113943110Y-62401476D01*
X114173000Y-62280155D01*
X114173000Y-61087000D01*
X114153000Y-61087000D01*
X114153000Y-60833000D01*
X114173000Y-60833000D01*
X114173000Y-60813000D01*
X114427000Y-60813000D01*
X114427000Y-60833000D01*
X114447000Y-60833000D01*
X114447000Y-61087000D01*
X114427000Y-61087000D01*
X114427000Y-62280155D01*
X114656890Y-62401476D01*
X114804099Y-62356825D01*
X115066920Y-62231641D01*
X115300269Y-62057588D01*
X115495178Y-61841355D01*
X115564805Y-61724466D01*
X115686525Y-61906632D01*
X115893368Y-62113475D01*
X116136589Y-62275990D01*
X116406842Y-62387932D01*
X116693740Y-62445000D01*
X116986260Y-62445000D01*
X117273158Y-62387932D01*
X117543411Y-62275990D01*
X117786632Y-62113475D01*
X117993475Y-61906632D01*
X118110000Y-61732240D01*
X118226525Y-61906632D01*
X118433368Y-62113475D01*
X118676589Y-62275990D01*
X118946842Y-62387932D01*
X119233740Y-62445000D01*
X119526260Y-62445000D01*
X119813158Y-62387932D01*
X120083411Y-62275990D01*
X120326632Y-62113475D01*
X120533475Y-61906632D01*
X120650000Y-61732240D01*
X120766525Y-61906632D01*
X120973368Y-62113475D01*
X121216589Y-62275990D01*
X121486842Y-62387932D01*
X121773740Y-62445000D01*
X122066260Y-62445000D01*
X122353158Y-62387932D01*
X122623411Y-62275990D01*
X122866632Y-62113475D01*
X123073475Y-61906632D01*
X123190000Y-61732240D01*
X123306525Y-61906632D01*
X123513368Y-62113475D01*
X123756589Y-62275990D01*
X124026842Y-62387932D01*
X124313740Y-62445000D01*
X124606260Y-62445000D01*
X124893158Y-62387932D01*
X125163411Y-62275990D01*
X125406632Y-62113475D01*
X125613475Y-61906632D01*
X125730000Y-61732240D01*
X125846525Y-61906632D01*
X126053368Y-62113475D01*
X126296589Y-62275990D01*
X126566842Y-62387932D01*
X126853740Y-62445000D01*
X127146260Y-62445000D01*
X127433158Y-62387932D01*
X127703411Y-62275990D01*
X127946632Y-62113475D01*
X128153475Y-61906632D01*
X128270000Y-61732240D01*
X128386525Y-61906632D01*
X128593368Y-62113475D01*
X128836589Y-62275990D01*
X129106842Y-62387932D01*
X129393740Y-62445000D01*
X129686260Y-62445000D01*
X129973158Y-62387932D01*
X130243411Y-62275990D01*
X130486632Y-62113475D01*
X130693475Y-61906632D01*
X130815195Y-61724466D01*
X130884822Y-61841355D01*
X131079731Y-62057588D01*
X131313080Y-62231641D01*
X131575901Y-62356825D01*
X131723110Y-62401476D01*
X131953000Y-62280155D01*
X131953000Y-61087000D01*
X132207000Y-61087000D01*
X132207000Y-62280155D01*
X132436890Y-62401476D01*
X132584099Y-62356825D01*
X132846920Y-62231641D01*
X133080269Y-62057588D01*
X133275178Y-61841355D01*
X133424157Y-61591252D01*
X133521481Y-61316891D01*
X133400814Y-61087000D01*
X132207000Y-61087000D01*
X131953000Y-61087000D01*
X131933000Y-61087000D01*
X131933000Y-60833000D01*
X131953000Y-60833000D01*
X131953000Y-60813000D01*
X132207000Y-60813000D01*
X132207000Y-60833000D01*
X133400814Y-60833000D01*
X133521481Y-60603109D01*
X133424157Y-60328748D01*
X133275178Y-60078645D01*
X133080269Y-59862412D01*
X132850594Y-59691100D01*
X133026632Y-59573475D01*
X133233475Y-59366632D01*
X133395990Y-59123411D01*
X133507932Y-58853158D01*
X133565000Y-58566260D01*
X133565000Y-58273740D01*
X133507932Y-57986842D01*
X133395990Y-57716589D01*
X133233475Y-57473368D01*
X133026632Y-57266525D01*
X132783411Y-57104010D01*
X132513158Y-56992068D01*
X132226260Y-56935000D01*
X131933740Y-56935000D01*
X131646842Y-56992068D01*
X131376589Y-57104010D01*
X131133368Y-57266525D01*
X130926525Y-57473368D01*
X130810000Y-57647760D01*
X130693475Y-57473368D01*
X130486632Y-57266525D01*
X130243411Y-57104010D01*
X129973158Y-56992068D01*
X129686260Y-56935000D01*
X129393740Y-56935000D01*
X129106842Y-56992068D01*
X128836589Y-57104010D01*
X128593368Y-57266525D01*
X128386525Y-57473368D01*
X128270000Y-57647760D01*
X128153475Y-57473368D01*
X127946632Y-57266525D01*
X127703411Y-57104010D01*
X127433158Y-56992068D01*
X127146260Y-56935000D01*
X126853740Y-56935000D01*
X126566842Y-56992068D01*
X126296589Y-57104010D01*
X126053368Y-57266525D01*
X125846525Y-57473368D01*
X125724805Y-57655534D01*
X125655178Y-57538645D01*
X125460269Y-57322412D01*
X125226920Y-57148359D01*
X124964099Y-57023175D01*
X124816890Y-56978524D01*
X124587000Y-57099845D01*
X124587000Y-58293000D01*
X124607000Y-58293000D01*
X124607000Y-58547000D01*
X124587000Y-58547000D01*
X124587000Y-58567000D01*
X124333000Y-58567000D01*
X124333000Y-58547000D01*
X124313000Y-58547000D01*
X124313000Y-58293000D01*
X124333000Y-58293000D01*
X124333000Y-57099845D01*
X124103110Y-56978524D01*
X123955901Y-57023175D01*
X123693080Y-57148359D01*
X123459731Y-57322412D01*
X123264822Y-57538645D01*
X123195195Y-57655534D01*
X123073475Y-57473368D01*
X122866632Y-57266525D01*
X122623411Y-57104010D01*
X122353158Y-56992068D01*
X122066260Y-56935000D01*
X121773740Y-56935000D01*
X121486842Y-56992068D01*
X121216589Y-57104010D01*
X120973368Y-57266525D01*
X120766525Y-57473368D01*
X120644805Y-57655534D01*
X120575178Y-57538645D01*
X120380269Y-57322412D01*
X120146920Y-57148359D01*
X119884099Y-57023175D01*
X119736890Y-56978524D01*
X119507000Y-57099845D01*
X119507000Y-58293000D01*
X119527000Y-58293000D01*
X119527000Y-58547000D01*
X119507000Y-58547000D01*
X119507000Y-58567000D01*
X119253000Y-58567000D01*
X119253000Y-58547000D01*
X119233000Y-58547000D01*
X119233000Y-58293000D01*
X119253000Y-58293000D01*
X119253000Y-57099845D01*
X119023110Y-56978524D01*
X118875901Y-57023175D01*
X118613080Y-57148359D01*
X118379731Y-57322412D01*
X118184822Y-57538645D01*
X118115195Y-57655534D01*
X117993475Y-57473368D01*
X117786632Y-57266525D01*
X117543411Y-57104010D01*
X117273158Y-56992068D01*
X116986260Y-56935000D01*
X116693740Y-56935000D01*
X116406842Y-56992068D01*
X116136589Y-57104010D01*
X115893368Y-57266525D01*
X115686525Y-57473368D01*
X115570000Y-57647760D01*
X115453475Y-57473368D01*
X115246632Y-57266525D01*
X115003411Y-57104010D01*
X114733158Y-56992068D01*
X114446260Y-56935000D01*
X114153740Y-56935000D01*
X113866842Y-56992068D01*
X113596589Y-57104010D01*
X113353368Y-57266525D01*
X113146525Y-57473368D01*
X113030000Y-57647760D01*
X112913475Y-57473368D01*
X112706632Y-57266525D01*
X112463411Y-57104010D01*
X112193158Y-56992068D01*
X111906260Y-56935000D01*
X111613740Y-56935000D01*
X111326842Y-56992068D01*
X111056589Y-57104010D01*
X110813368Y-57266525D01*
X110606525Y-57473368D01*
X110490000Y-57647760D01*
X110373475Y-57473368D01*
X110166632Y-57266525D01*
X109923411Y-57104010D01*
X109653158Y-56992068D01*
X109366260Y-56935000D01*
X109073740Y-56935000D01*
X108786842Y-56992068D01*
X108516589Y-57104010D01*
X108273368Y-57266525D01*
X108066525Y-57473368D01*
X107944805Y-57655534D01*
X107875178Y-57538645D01*
X107680269Y-57322412D01*
X107446920Y-57148359D01*
X107184099Y-57023175D01*
X107036890Y-56978524D01*
X106807000Y-57099845D01*
X106807000Y-58293000D01*
X106827000Y-58293000D01*
X106827000Y-58547000D01*
X106807000Y-58547000D01*
X106807000Y-58567000D01*
X106553000Y-58567000D01*
X106553000Y-58547000D01*
X106533000Y-58547000D01*
X106533000Y-58293000D01*
X106553000Y-58293000D01*
X106553000Y-57099845D01*
X106323110Y-56978524D01*
X106175901Y-57023175D01*
X105913080Y-57148359D01*
X105679731Y-57322412D01*
X105484822Y-57538645D01*
X105415195Y-57655534D01*
X105293475Y-57473368D01*
X105086632Y-57266525D01*
X104843411Y-57104010D01*
X104573158Y-56992068D01*
X104286260Y-56935000D01*
X103993740Y-56935000D01*
X103706842Y-56992068D01*
X103436589Y-57104010D01*
X103193368Y-57266525D01*
X102986525Y-57473368D01*
X102870000Y-57647760D01*
X102753475Y-57473368D01*
X102546632Y-57266525D01*
X102303411Y-57104010D01*
X102033158Y-56992068D01*
X101746260Y-56935000D01*
X101453740Y-56935000D01*
X101166842Y-56992068D01*
X100896589Y-57104010D01*
X100653368Y-57266525D01*
X100446525Y-57473368D01*
X100324805Y-57655534D01*
X100255178Y-57538645D01*
X100060269Y-57322412D01*
X99826920Y-57148359D01*
X99564099Y-57023175D01*
X99416890Y-56978524D01*
X99187000Y-57099845D01*
X99187000Y-58293000D01*
X99207000Y-58293000D01*
X99207000Y-58547000D01*
X99187000Y-58547000D01*
X99187000Y-58567000D01*
X98933000Y-58567000D01*
X98933000Y-58547000D01*
X98913000Y-58547000D01*
X98913000Y-58293000D01*
X98933000Y-58293000D01*
X98933000Y-57099845D01*
X98703110Y-56978524D01*
X98555901Y-57023175D01*
X98293080Y-57148359D01*
X98059731Y-57322412D01*
X97864822Y-57538645D01*
X97795195Y-57655534D01*
X97673475Y-57473368D01*
X97466632Y-57266525D01*
X97223411Y-57104010D01*
X96953158Y-56992068D01*
X96666260Y-56935000D01*
X96373740Y-56935000D01*
X96086842Y-56992068D01*
X95816589Y-57104010D01*
X95573368Y-57266525D01*
X95366525Y-57473368D01*
X95250000Y-57647760D01*
X95133475Y-57473368D01*
X94926632Y-57266525D01*
X94683411Y-57104010D01*
X94413158Y-56992068D01*
X94126260Y-56935000D01*
X93833740Y-56935000D01*
X93546842Y-56992068D01*
X93276589Y-57104010D01*
X93033368Y-57266525D01*
X92826525Y-57473368D01*
X92710000Y-57647760D01*
X92593475Y-57473368D01*
X92386632Y-57266525D01*
X92143411Y-57104010D01*
X91873158Y-56992068D01*
X91586260Y-56935000D01*
X91293740Y-56935000D01*
X91006842Y-56992068D01*
X90736589Y-57104010D01*
X90493368Y-57266525D01*
X90286525Y-57473368D01*
X90164805Y-57655534D01*
X90095178Y-57538645D01*
X89900269Y-57322412D01*
X89666920Y-57148359D01*
X89404099Y-57023175D01*
X89256890Y-56978524D01*
X89027000Y-57099845D01*
X89027000Y-58293000D01*
X89047000Y-58293000D01*
X89047000Y-58547000D01*
X89027000Y-58547000D01*
X89027000Y-58567000D01*
X88773000Y-58567000D01*
X88773000Y-58547000D01*
X88753000Y-58547000D01*
X88753000Y-58293000D01*
X88773000Y-58293000D01*
X88773000Y-57099845D01*
X88543110Y-56978524D01*
X88395901Y-57023175D01*
X88133080Y-57148359D01*
X87899731Y-57322412D01*
X87704822Y-57538645D01*
X87635195Y-57655534D01*
X87513475Y-57473368D01*
X87306632Y-57266525D01*
X87063411Y-57104010D01*
X86793158Y-56992068D01*
X86506260Y-56935000D01*
X86213740Y-56935000D01*
X85926842Y-56992068D01*
X85656589Y-57104010D01*
X85413368Y-57266525D01*
X85206525Y-57473368D01*
X85090000Y-57647760D01*
X84973475Y-57473368D01*
X84766632Y-57266525D01*
X84523411Y-57104010D01*
X84253158Y-56992068D01*
X83966260Y-56935000D01*
X83673740Y-56935000D01*
X83386842Y-56992068D01*
X83116589Y-57104010D01*
X82873368Y-57266525D01*
X82666525Y-57473368D01*
X82504010Y-57716589D01*
X82392068Y-57986842D01*
X82335000Y-58273740D01*
X82335000Y-58566260D01*
X82392068Y-58853158D01*
X82504010Y-59123411D01*
X82666525Y-59366632D01*
X82798380Y-59498487D01*
X82725820Y-59520498D01*
X82615506Y-59579463D01*
X82518815Y-59658815D01*
X82439463Y-59755506D01*
X82380498Y-59865820D01*
X82344188Y-59985518D01*
X82331928Y-60110000D01*
X80578386Y-60110000D01*
X80625000Y-59875656D01*
X80625000Y-59504344D01*
X80552561Y-59140166D01*
X80410466Y-58797118D01*
X80204175Y-58488382D01*
X79941618Y-58225825D01*
X79632882Y-58019534D01*
X79289834Y-57877439D01*
X78925656Y-57805000D01*
X78554344Y-57805000D01*
X78190166Y-57877439D01*
X77847118Y-58019534D01*
X77538382Y-58225825D01*
X77275825Y-58488382D01*
X77069534Y-58797118D01*
X76927439Y-59140166D01*
X76855000Y-59504344D01*
X76327000Y-59504344D01*
X76327000Y-54737000D01*
X138303000Y-54737000D01*
X138303000Y-58186658D01*
G37*
%TD.AperFunction*%
%TD*%
M02*
