%TF.GenerationSoftware,KiCad,Pcbnew,5.1.10-88a1d61d58~90~ubuntu20.04.1*%
%TF.CreationDate,2021-09-14T14:26:02-04:00*%
%TF.ProjectId,tele-pi,74656c65-2d70-4692-9e6b-696361645f70,rev?*%
%TF.SameCoordinates,Original*%
%TF.FileFunction,Soldermask,Top*%
%TF.FilePolarity,Negative*%
%FSLAX46Y46*%
G04 Gerber Fmt 4.6, Leading zero omitted, Abs format (unit mm)*
G04 Created by KiCad (PCBNEW 5.1.10-88a1d61d58~90~ubuntu20.04.1) date 2021-09-14 14:26:02*
%MOMM*%
%LPD*%
G01*
G04 APERTURE LIST*
%ADD10C,1.879600*%
%ADD11C,2.500000*%
%ADD12O,1.600000X1.600000*%
%ADD13C,1.600000*%
%ADD14C,3.000000*%
%ADD15R,3.000000X3.000000*%
%ADD16C,1.308100*%
%ADD17C,2.171700*%
%ADD18C,3.251200*%
%ADD19R,1.500000X1.050000*%
%ADD20O,1.500000X1.050000*%
%ADD21O,1.700000X1.700000*%
%ADD22R,1.700000X1.700000*%
G04 APERTURE END LIST*
D10*
%TO.C,KEYBOARD-(RX)*%
X129209800Y-92913200D02*
G75*
G03*
X129209800Y-92913200I-939800J0D01*
G01*
X129209800Y-97993200D02*
G75*
G03*
X129209800Y-97993200I-939800J0D01*
G01*
X129209800Y-110693200D02*
G75*
G03*
X129209800Y-110693200I-939800J0D01*
G01*
%TO.C,PRINTER-(TX)*%
X92379800Y-92913200D02*
G75*
G03*
X92379800Y-92913200I-939800J0D01*
G01*
X92379800Y-97993200D02*
G75*
G03*
X92379800Y-97993200I-939800J0D01*
G01*
X92379800Y-110693200D02*
G75*
G03*
X92379800Y-110693200I-939800J0D01*
G01*
%TD*%
D11*
%TO.C,REF\u002A\u002A*%
X78740000Y-59690000D03*
%TD*%
%TO.C,REF\u002A\u002A*%
X137160000Y-59690000D03*
%TD*%
%TO.C,REF\u002A\u002A*%
X78740000Y-109220000D03*
%TD*%
D12*
%TO.C,R1*%
X82550000Y-69850000D03*
D13*
X97790000Y-69850000D03*
%TD*%
D14*
%TO.C,+            -*%
X114300000Y-110490000D03*
X109220000Y-110490000D03*
D15*
X104140000Y-110490000D03*
%TD*%
D12*
%TO.C,R3*%
X120650000Y-66040000D03*
D13*
X105410000Y-66040000D03*
%TD*%
D12*
%TO.C,R2*%
X120650000Y-69850000D03*
D13*
X105410000Y-69850000D03*
%TD*%
D16*
%TO.C,K2*%
X123190000Y-73660000D03*
X125730000Y-73660000D03*
X128270000Y-73660000D03*
X130810000Y-73660000D03*
X130810000Y-81280000D03*
X128270000Y-81280000D03*
X125730000Y-81280000D03*
X123190000Y-81280000D03*
%TD*%
D17*
%TO.C,KEYBOARD-(RX)*%
X123113800Y-92913200D03*
X133019800Y-92913200D03*
X133019800Y-110693200D03*
D18*
X128270000Y-92913200D03*
X128270000Y-97993200D03*
X128270000Y-110693200D03*
%TD*%
D16*
%TO.C,K1*%
X93980000Y-81280000D03*
X91440000Y-81280000D03*
X88900000Y-81280000D03*
X86360000Y-81280000D03*
X86360000Y-73660000D03*
X88900000Y-73660000D03*
X91440000Y-73660000D03*
X93980000Y-73660000D03*
%TD*%
D19*
%TO.C,Q1*%
X78740000Y-68580000D03*
D20*
X78740000Y-66040000D03*
X78740000Y-67310000D03*
%TD*%
D21*
%TO.C,J1*%
X132080000Y-58420000D03*
X132080000Y-60960000D03*
X129540000Y-58420000D03*
X129540000Y-60960000D03*
X127000000Y-58420000D03*
X127000000Y-60960000D03*
X124460000Y-58420000D03*
X124460000Y-60960000D03*
X121920000Y-58420000D03*
X121920000Y-60960000D03*
X119380000Y-58420000D03*
X119380000Y-60960000D03*
X116840000Y-58420000D03*
X116840000Y-60960000D03*
X114300000Y-58420000D03*
X114300000Y-60960000D03*
X111760000Y-58420000D03*
X111760000Y-60960000D03*
X109220000Y-58420000D03*
X109220000Y-60960000D03*
X106680000Y-58420000D03*
X106680000Y-60960000D03*
X104140000Y-58420000D03*
X104140000Y-60960000D03*
X101600000Y-58420000D03*
X101600000Y-60960000D03*
X99060000Y-58420000D03*
X99060000Y-60960000D03*
X96520000Y-58420000D03*
X96520000Y-60960000D03*
X93980000Y-58420000D03*
X93980000Y-60960000D03*
X91440000Y-58420000D03*
X91440000Y-60960000D03*
X88900000Y-58420000D03*
X88900000Y-60960000D03*
X86360000Y-58420000D03*
X86360000Y-60960000D03*
X83820000Y-58420000D03*
D22*
X83820000Y-60960000D03*
%TD*%
D17*
%TO.C,PRINTER-(TX)*%
X86283800Y-92913200D03*
X96189800Y-92913200D03*
X96189800Y-110693200D03*
D18*
X91440000Y-92913200D03*
X91440000Y-97993200D03*
X91440000Y-110693200D03*
%TD*%
M02*
