%TF.GenerationSoftware,KiCad,Pcbnew,5.1.10-88a1d61d58~90~ubuntu20.04.1*%
%TF.CreationDate,2021-09-14T14:26:02-04:00*%
%TF.ProjectId,tele-pi,74656c65-2d70-4692-9e6b-696361645f70,rev?*%
%TF.SameCoordinates,Original*%
%TF.FileFunction,Legend,Top*%
%TF.FilePolarity,Positive*%
%FSLAX46Y46*%
G04 Gerber Fmt 4.6, Leading zero omitted, Abs format (unit mm)*
G04 Created by KiCad (PCBNEW 5.1.10-88a1d61d58~90~ubuntu20.04.1) date 2021-09-14 14:26:02*
%MOMM*%
%LPD*%
G01*
G04 APERTURE LIST*
%ADD10C,0.120000*%
%ADD11C,0.127000*%
%ADD12C,0.150000*%
%ADD13C,0.015000*%
G04 APERTURE END LIST*
D10*
%TO.C,R1*%
X83590000Y-69850000D02*
X86900000Y-69850000D01*
X96750000Y-69850000D02*
X93440000Y-69850000D01*
X86900000Y-71220000D02*
X93440000Y-71220000D01*
X86900000Y-68480000D02*
X86900000Y-71220000D01*
X93440000Y-68480000D02*
X86900000Y-68480000D01*
X93440000Y-71220000D02*
X93440000Y-68480000D01*
%TO.C,+            -*%
X101600000Y-114300000D02*
X116840000Y-114300000D01*
X101600000Y-106680000D02*
X116840000Y-106680000D01*
X101600000Y-113030000D02*
X116840000Y-113030000D01*
X116840000Y-114300000D02*
X116840000Y-106680000D01*
X101600000Y-114300000D02*
X101600000Y-106680000D01*
%TO.C,R3*%
X109760000Y-64670000D02*
X109760000Y-67410000D01*
X109760000Y-67410000D02*
X116300000Y-67410000D01*
X116300000Y-67410000D02*
X116300000Y-64670000D01*
X116300000Y-64670000D02*
X109760000Y-64670000D01*
X106450000Y-66040000D02*
X109760000Y-66040000D01*
X119610000Y-66040000D02*
X116300000Y-66040000D01*
%TO.C,R2*%
X109760000Y-68480000D02*
X109760000Y-71220000D01*
X109760000Y-71220000D02*
X116300000Y-71220000D01*
X116300000Y-71220000D02*
X116300000Y-68480000D01*
X116300000Y-68480000D02*
X109760000Y-68480000D01*
X106450000Y-69850000D02*
X109760000Y-69850000D01*
X119610000Y-69850000D02*
X116300000Y-69850000D01*
%TO.C,K2*%
X131957001Y-80797001D02*
X131957001Y-74142999D01*
X131957001Y-74142999D02*
X131677778Y-74142999D01*
X122042999Y-74142999D02*
X122042999Y-80797001D01*
X122042999Y-80797001D02*
X122322222Y-80797001D01*
X124057778Y-80797001D02*
X124862222Y-80797001D01*
X126597778Y-80797001D02*
X127402222Y-80797001D01*
X129137778Y-80797001D02*
X129942222Y-80797001D01*
X131677778Y-80797001D02*
X131957001Y-80797001D01*
X129942222Y-74142999D02*
X129137778Y-74142999D01*
X127402222Y-74142999D02*
X126597778Y-74142999D01*
X124862222Y-74142999D02*
X124057778Y-74142999D01*
X122322222Y-74142999D02*
X122042999Y-74142999D01*
D11*
%TO.C,KEYBOARD-(RX)*%
X136080500Y-88392000D02*
X136080500Y-115976400D01*
X136080500Y-115976400D02*
X133769100Y-115976400D01*
X133769100Y-115976400D02*
X122770900Y-115976400D01*
X122770900Y-115976400D02*
X120459500Y-115976400D01*
X120459500Y-115976400D02*
X120459500Y-88392000D01*
X120459500Y-88392000D02*
X136080500Y-88392000D01*
X133769100Y-115976400D02*
X133769100Y-122428000D01*
X133769100Y-122428000D02*
X122770900Y-122428000D01*
X122770900Y-122428000D02*
X122770900Y-115976400D01*
D10*
%TO.C,K1*%
X85212999Y-74142999D02*
X85212999Y-80797001D01*
X85212999Y-80797001D02*
X85492222Y-80797001D01*
X95127001Y-80797001D02*
X95127001Y-74142999D01*
X95127001Y-74142999D02*
X94847778Y-74142999D01*
X93112222Y-74142999D02*
X92307778Y-74142999D01*
X90572222Y-74142999D02*
X89767778Y-74142999D01*
X88032222Y-74142999D02*
X87227778Y-74142999D01*
X85492222Y-74142999D02*
X85212999Y-74142999D01*
X87227778Y-80797001D02*
X88032222Y-80797001D01*
X89767778Y-80797001D02*
X90572222Y-80797001D01*
X92307778Y-80797001D02*
X93112222Y-80797001D01*
X94847778Y-80797001D02*
X95127001Y-80797001D01*
%TO.C,Q1*%
X80590000Y-69110000D02*
X80590000Y-65510000D01*
X80578478Y-65471522D02*
G75*
G03*
X76140000Y-67310000I-1838478J-1838478D01*
G01*
X80578478Y-69148478D02*
G75*
G02*
X76140000Y-67310000I-1838478J1838478D01*
G01*
%TO.C,J1*%
X133410000Y-62290000D02*
X133410000Y-57090000D01*
X85090000Y-62290000D02*
X133410000Y-62290000D01*
X82490000Y-57090000D02*
X133410000Y-57090000D01*
X85090000Y-62290000D02*
X85090000Y-59690000D01*
X85090000Y-59690000D02*
X82490000Y-59690000D01*
X82490000Y-59690000D02*
X82490000Y-57090000D01*
X83820000Y-62290000D02*
X82490000Y-62290000D01*
X82490000Y-62290000D02*
X82490000Y-60960000D01*
D11*
%TO.C,PRINTER-(TX)*%
X99250500Y-88392000D02*
X99250500Y-115976400D01*
X99250500Y-115976400D02*
X96939100Y-115976400D01*
X96939100Y-115976400D02*
X85940900Y-115976400D01*
X85940900Y-115976400D02*
X83629500Y-115976400D01*
X83629500Y-115976400D02*
X83629500Y-88392000D01*
X83629500Y-88392000D02*
X99250500Y-88392000D01*
X96939100Y-115976400D02*
X96939100Y-122428000D01*
X96939100Y-122428000D02*
X85940900Y-122428000D01*
X85940900Y-122428000D02*
X85940900Y-115976400D01*
%TO.C,R1*%
D12*
X90003333Y-70302380D02*
X89670000Y-69826190D01*
X89431904Y-70302380D02*
X89431904Y-69302380D01*
X89812857Y-69302380D01*
X89908095Y-69350000D01*
X89955714Y-69397619D01*
X90003333Y-69492857D01*
X90003333Y-69635714D01*
X89955714Y-69730952D01*
X89908095Y-69778571D01*
X89812857Y-69826190D01*
X89431904Y-69826190D01*
X90955714Y-70302380D02*
X90384285Y-70302380D01*
X90670000Y-70302380D02*
X90670000Y-69302380D01*
X90574761Y-69445238D01*
X90479523Y-69540476D01*
X90384285Y-69588095D01*
%TO.C,+            -*%
X103618571Y-105911428D02*
X104380476Y-105911428D01*
X103999523Y-106292380D02*
X103999523Y-105530476D01*
X113999523Y-105911428D02*
X114761428Y-105911428D01*
%TO.C,R3*%
X112863333Y-66492380D02*
X112530000Y-66016190D01*
X112291904Y-66492380D02*
X112291904Y-65492380D01*
X112672857Y-65492380D01*
X112768095Y-65540000D01*
X112815714Y-65587619D01*
X112863333Y-65682857D01*
X112863333Y-65825714D01*
X112815714Y-65920952D01*
X112768095Y-65968571D01*
X112672857Y-66016190D01*
X112291904Y-66016190D01*
X113196666Y-65492380D02*
X113815714Y-65492380D01*
X113482380Y-65873333D01*
X113625238Y-65873333D01*
X113720476Y-65920952D01*
X113768095Y-65968571D01*
X113815714Y-66063809D01*
X113815714Y-66301904D01*
X113768095Y-66397142D01*
X113720476Y-66444761D01*
X113625238Y-66492380D01*
X113339523Y-66492380D01*
X113244285Y-66444761D01*
X113196666Y-66397142D01*
%TO.C,R2*%
X112863333Y-70302380D02*
X112530000Y-69826190D01*
X112291904Y-70302380D02*
X112291904Y-69302380D01*
X112672857Y-69302380D01*
X112768095Y-69350000D01*
X112815714Y-69397619D01*
X112863333Y-69492857D01*
X112863333Y-69635714D01*
X112815714Y-69730952D01*
X112768095Y-69778571D01*
X112672857Y-69826190D01*
X112291904Y-69826190D01*
X113244285Y-69397619D02*
X113291904Y-69350000D01*
X113387142Y-69302380D01*
X113625238Y-69302380D01*
X113720476Y-69350000D01*
X113768095Y-69397619D01*
X113815714Y-69492857D01*
X113815714Y-69588095D01*
X113768095Y-69730952D01*
X113196666Y-70302380D01*
X113815714Y-70302380D01*
%TO.C,K2*%
X119832380Y-78208095D02*
X118832380Y-78208095D01*
X119832380Y-77636666D02*
X119260952Y-78065238D01*
X118832380Y-77636666D02*
X119403809Y-78208095D01*
X118927619Y-77255714D02*
X118880000Y-77208095D01*
X118832380Y-77112857D01*
X118832380Y-76874761D01*
X118880000Y-76779523D01*
X118927619Y-76731904D01*
X119022857Y-76684285D01*
X119118095Y-76684285D01*
X119260952Y-76731904D01*
X119832380Y-77303333D01*
X119832380Y-76684285D01*
X122738095Y-76970000D02*
X122642857Y-76922380D01*
X122500000Y-76922380D01*
X122357142Y-76970000D01*
X122261904Y-77065238D01*
X122214285Y-77160476D01*
X122166666Y-77350952D01*
X122166666Y-77493809D01*
X122214285Y-77684285D01*
X122261904Y-77779523D01*
X122357142Y-77874761D01*
X122500000Y-77922380D01*
X122595238Y-77922380D01*
X122738095Y-77874761D01*
X122785714Y-77827142D01*
X122785714Y-77493809D01*
X122595238Y-77493809D01*
X123119047Y-76922380D02*
X123738095Y-76922380D01*
X123404761Y-77303333D01*
X123547619Y-77303333D01*
X123642857Y-77350952D01*
X123690476Y-77398571D01*
X123738095Y-77493809D01*
X123738095Y-77731904D01*
X123690476Y-77827142D01*
X123642857Y-77874761D01*
X123547619Y-77922380D01*
X123261904Y-77922380D01*
X123166666Y-77874761D01*
X123119047Y-77827142D01*
X124023809Y-76922380D02*
X124357142Y-77922380D01*
X124690476Y-76922380D01*
X125023809Y-77922380D02*
X125023809Y-76922380D01*
X125357142Y-77636666D01*
X125690476Y-76922380D01*
X125690476Y-77922380D01*
X126166666Y-77541428D02*
X126928571Y-77541428D01*
X127833333Y-77255714D02*
X127833333Y-77922380D01*
X127595238Y-76874761D02*
X127357142Y-77589047D01*
X127976190Y-77589047D01*
X128547619Y-76922380D02*
X128642857Y-76922380D01*
X128738095Y-76970000D01*
X128785714Y-77017619D01*
X128833333Y-77112857D01*
X128880952Y-77303333D01*
X128880952Y-77541428D01*
X128833333Y-77731904D01*
X128785714Y-77827142D01*
X128738095Y-77874761D01*
X128642857Y-77922380D01*
X128547619Y-77922380D01*
X128452380Y-77874761D01*
X128404761Y-77827142D01*
X128357142Y-77731904D01*
X128309523Y-77541428D01*
X128309523Y-77303333D01*
X128357142Y-77112857D01*
X128404761Y-77017619D01*
X128452380Y-76970000D01*
X128547619Y-76922380D01*
X129833333Y-77922380D02*
X129261904Y-77922380D01*
X129547619Y-77922380D02*
X129547619Y-76922380D01*
X129452380Y-77065238D01*
X129357142Y-77160476D01*
X129261904Y-77208095D01*
X130833333Y-77827142D02*
X130785714Y-77874761D01*
X130642857Y-77922380D01*
X130547619Y-77922380D01*
X130404761Y-77874761D01*
X130309523Y-77779523D01*
X130261904Y-77684285D01*
X130214285Y-77493809D01*
X130214285Y-77350952D01*
X130261904Y-77160476D01*
X130309523Y-77065238D01*
X130404761Y-76970000D01*
X130547619Y-76922380D01*
X130642857Y-76922380D01*
X130785714Y-76970000D01*
X130833333Y-77017619D01*
X131833333Y-77922380D02*
X131500000Y-77446190D01*
X131261904Y-77922380D02*
X131261904Y-76922380D01*
X131642857Y-76922380D01*
X131738095Y-76970000D01*
X131785714Y-77017619D01*
X131833333Y-77112857D01*
X131833333Y-77255714D01*
X131785714Y-77350952D01*
X131738095Y-77398571D01*
X131642857Y-77446190D01*
X131261904Y-77446190D01*
X120102380Y-77470000D02*
X120340476Y-77470000D01*
X120245238Y-77708095D02*
X120340476Y-77470000D01*
X120245238Y-77231904D01*
X120530952Y-77612857D02*
X120340476Y-77470000D01*
X120530952Y-77327142D01*
%TO.C,KEYBOARD-(RX)*%
D13*
X138292333Y-101338200D02*
X136892333Y-101338200D01*
X138292333Y-100538200D02*
X137492333Y-101138200D01*
X136892333Y-100538200D02*
X137692333Y-101338200D01*
X137559000Y-99938200D02*
X137559000Y-99471533D01*
X138292333Y-99271533D02*
X138292333Y-99938200D01*
X136892333Y-99938200D01*
X136892333Y-99271533D01*
X137625666Y-98404866D02*
X138292333Y-98404866D01*
X136892333Y-98871533D02*
X137625666Y-98404866D01*
X136892333Y-97938200D01*
X137559000Y-97004866D02*
X137625666Y-96804866D01*
X137692333Y-96738200D01*
X137825666Y-96671533D01*
X138025666Y-96671533D01*
X138159000Y-96738200D01*
X138225666Y-96804866D01*
X138292333Y-96938200D01*
X138292333Y-97471533D01*
X136892333Y-97471533D01*
X136892333Y-97004866D01*
X136959000Y-96871533D01*
X137025666Y-96804866D01*
X137159000Y-96738200D01*
X137292333Y-96738200D01*
X137425666Y-96804866D01*
X137492333Y-96871533D01*
X137559000Y-97004866D01*
X137559000Y-97471533D01*
X136892333Y-95804866D02*
X136892333Y-95538200D01*
X136959000Y-95404866D01*
X137092333Y-95271533D01*
X137359000Y-95204866D01*
X137825666Y-95204866D01*
X138092333Y-95271533D01*
X138225666Y-95404866D01*
X138292333Y-95538200D01*
X138292333Y-95804866D01*
X138225666Y-95938200D01*
X138092333Y-96071533D01*
X137825666Y-96138200D01*
X137359000Y-96138200D01*
X137092333Y-96071533D01*
X136959000Y-95938200D01*
X136892333Y-95804866D01*
X137892333Y-94671533D02*
X137892333Y-94004866D01*
X138292333Y-94804866D02*
X136892333Y-94338200D01*
X138292333Y-93871533D01*
X138292333Y-92604866D02*
X137625666Y-93071533D01*
X138292333Y-93404866D02*
X136892333Y-93404866D01*
X136892333Y-92871533D01*
X136959000Y-92738200D01*
X137025666Y-92671533D01*
X137159000Y-92604866D01*
X137359000Y-92604866D01*
X137492333Y-92671533D01*
X137559000Y-92738200D01*
X137625666Y-92871533D01*
X137625666Y-93404866D01*
X138292333Y-92004866D02*
X136892333Y-92004866D01*
X136892333Y-91671533D01*
X136959000Y-91471533D01*
X137092333Y-91338200D01*
X137225666Y-91271533D01*
X137492333Y-91204866D01*
X137692333Y-91204866D01*
X137959000Y-91271533D01*
X138092333Y-91338200D01*
X138225666Y-91471533D01*
X138292333Y-91671533D01*
X138292333Y-92004866D01*
X137759000Y-90604866D02*
X137759000Y-89538200D01*
X138825666Y-88471533D02*
X138759000Y-88538200D01*
X138559000Y-88671533D01*
X138425666Y-88738200D01*
X138225666Y-88804866D01*
X137892333Y-88871533D01*
X137625666Y-88871533D01*
X137292333Y-88804866D01*
X137092333Y-88738200D01*
X136959000Y-88671533D01*
X136759000Y-88538200D01*
X136692333Y-88471533D01*
X138292333Y-87138200D02*
X137625666Y-87604866D01*
X138292333Y-87938200D02*
X136892333Y-87938200D01*
X136892333Y-87404866D01*
X136959000Y-87271533D01*
X137025666Y-87204866D01*
X137159000Y-87138200D01*
X137359000Y-87138200D01*
X137492333Y-87204866D01*
X137559000Y-87271533D01*
X137625666Y-87404866D01*
X137625666Y-87938200D01*
X136892333Y-86671533D02*
X138292333Y-85738200D01*
X136892333Y-85738200D02*
X138292333Y-86671533D01*
X138825666Y-85338200D02*
X138759000Y-85271533D01*
X138559000Y-85138200D01*
X138425666Y-85071533D01*
X138225666Y-85004866D01*
X137892333Y-84938200D01*
X137625666Y-84938200D01*
X137292333Y-85004866D01*
X137092333Y-85071533D01*
X136959000Y-85138200D01*
X136759000Y-85271533D01*
X136692333Y-85338200D01*
%TO.C,K1*%
D12*
X98242380Y-78208095D02*
X97242380Y-78208095D01*
X98242380Y-77636666D02*
X97670952Y-78065238D01*
X97242380Y-77636666D02*
X97813809Y-78208095D01*
X98242380Y-76684285D02*
X98242380Y-77255714D01*
X98242380Y-76970000D02*
X97242380Y-76970000D01*
X97385238Y-77065238D01*
X97480476Y-77160476D01*
X97528095Y-77255714D01*
X85908095Y-76970000D02*
X85812857Y-76922380D01*
X85670000Y-76922380D01*
X85527142Y-76970000D01*
X85431904Y-77065238D01*
X85384285Y-77160476D01*
X85336666Y-77350952D01*
X85336666Y-77493809D01*
X85384285Y-77684285D01*
X85431904Y-77779523D01*
X85527142Y-77874761D01*
X85670000Y-77922380D01*
X85765238Y-77922380D01*
X85908095Y-77874761D01*
X85955714Y-77827142D01*
X85955714Y-77493809D01*
X85765238Y-77493809D01*
X86289047Y-76922380D02*
X86908095Y-76922380D01*
X86574761Y-77303333D01*
X86717619Y-77303333D01*
X86812857Y-77350952D01*
X86860476Y-77398571D01*
X86908095Y-77493809D01*
X86908095Y-77731904D01*
X86860476Y-77827142D01*
X86812857Y-77874761D01*
X86717619Y-77922380D01*
X86431904Y-77922380D01*
X86336666Y-77874761D01*
X86289047Y-77827142D01*
X87193809Y-76922380D02*
X87527142Y-77922380D01*
X87860476Y-76922380D01*
X88193809Y-77922380D02*
X88193809Y-76922380D01*
X88527142Y-77636666D01*
X88860476Y-76922380D01*
X88860476Y-77922380D01*
X89336666Y-77541428D02*
X90098571Y-77541428D01*
X91003333Y-77255714D02*
X91003333Y-77922380D01*
X90765238Y-76874761D02*
X90527142Y-77589047D01*
X91146190Y-77589047D01*
X91717619Y-76922380D02*
X91812857Y-76922380D01*
X91908095Y-76970000D01*
X91955714Y-77017619D01*
X92003333Y-77112857D01*
X92050952Y-77303333D01*
X92050952Y-77541428D01*
X92003333Y-77731904D01*
X91955714Y-77827142D01*
X91908095Y-77874761D01*
X91812857Y-77922380D01*
X91717619Y-77922380D01*
X91622380Y-77874761D01*
X91574761Y-77827142D01*
X91527142Y-77731904D01*
X91479523Y-77541428D01*
X91479523Y-77303333D01*
X91527142Y-77112857D01*
X91574761Y-77017619D01*
X91622380Y-76970000D01*
X91717619Y-76922380D01*
X93003333Y-77922380D02*
X92431904Y-77922380D01*
X92717619Y-77922380D02*
X92717619Y-76922380D01*
X92622380Y-77065238D01*
X92527142Y-77160476D01*
X92431904Y-77208095D01*
X94003333Y-77827142D02*
X93955714Y-77874761D01*
X93812857Y-77922380D01*
X93717619Y-77922380D01*
X93574761Y-77874761D01*
X93479523Y-77779523D01*
X93431904Y-77684285D01*
X93384285Y-77493809D01*
X93384285Y-77350952D01*
X93431904Y-77160476D01*
X93479523Y-77065238D01*
X93574761Y-76970000D01*
X93717619Y-76922380D01*
X93812857Y-76922380D01*
X93955714Y-76970000D01*
X94003333Y-77017619D01*
X95003333Y-77922380D02*
X94670000Y-77446190D01*
X94431904Y-77922380D02*
X94431904Y-76922380D01*
X94812857Y-76922380D01*
X94908095Y-76970000D01*
X94955714Y-77017619D01*
X95003333Y-77112857D01*
X95003333Y-77255714D01*
X94955714Y-77350952D01*
X94908095Y-77398571D01*
X94812857Y-77446190D01*
X94431904Y-77446190D01*
X95972380Y-77470000D02*
X96210476Y-77470000D01*
X96115238Y-77708095D02*
X96210476Y-77470000D01*
X96115238Y-77231904D01*
X96400952Y-77612857D02*
X96210476Y-77470000D01*
X96400952Y-77327142D01*
%TO.C,Q1*%
X75727619Y-67405238D02*
X75680000Y-67500476D01*
X75584761Y-67595714D01*
X75441904Y-67738571D01*
X75394285Y-67833809D01*
X75394285Y-67929047D01*
X75632380Y-67881428D02*
X75584761Y-67976666D01*
X75489523Y-68071904D01*
X75299047Y-68119523D01*
X74965714Y-68119523D01*
X74775238Y-68071904D01*
X74680000Y-67976666D01*
X74632380Y-67881428D01*
X74632380Y-67690952D01*
X74680000Y-67595714D01*
X74775238Y-67500476D01*
X74965714Y-67452857D01*
X75299047Y-67452857D01*
X75489523Y-67500476D01*
X75584761Y-67595714D01*
X75632380Y-67690952D01*
X75632380Y-67881428D01*
X75632380Y-66500476D02*
X75632380Y-67071904D01*
X75632380Y-66786190D02*
X74632380Y-66786190D01*
X74775238Y-66881428D01*
X74870476Y-66976666D01*
X74918095Y-67071904D01*
%TO.C,J1*%
X80942380Y-60023333D02*
X81656666Y-60023333D01*
X81799523Y-60070952D01*
X81894761Y-60166190D01*
X81942380Y-60309047D01*
X81942380Y-60404285D01*
X81942380Y-59023333D02*
X81942380Y-59594761D01*
X81942380Y-59309047D02*
X80942380Y-59309047D01*
X81085238Y-59404285D01*
X81180476Y-59499523D01*
X81228095Y-59594761D01*
%TO.C,PRINTER-(TX)*%
D13*
X101462333Y-100138200D02*
X100062333Y-100138200D01*
X100062333Y-99604866D01*
X100129000Y-99471533D01*
X100195666Y-99404866D01*
X100329000Y-99338200D01*
X100529000Y-99338200D01*
X100662333Y-99404866D01*
X100729000Y-99471533D01*
X100795666Y-99604866D01*
X100795666Y-100138200D01*
X101462333Y-97938200D02*
X100795666Y-98404866D01*
X101462333Y-98738200D02*
X100062333Y-98738200D01*
X100062333Y-98204866D01*
X100129000Y-98071533D01*
X100195666Y-98004866D01*
X100329000Y-97938200D01*
X100529000Y-97938200D01*
X100662333Y-98004866D01*
X100729000Y-98071533D01*
X100795666Y-98204866D01*
X100795666Y-98738200D01*
X101462333Y-97338200D02*
X100062333Y-97338200D01*
X101462333Y-96671533D02*
X100062333Y-96671533D01*
X101462333Y-95871533D01*
X100062333Y-95871533D01*
X100062333Y-95404866D02*
X100062333Y-94604866D01*
X101462333Y-95004866D02*
X100062333Y-95004866D01*
X100729000Y-94138200D02*
X100729000Y-93671533D01*
X101462333Y-93471533D02*
X101462333Y-94138200D01*
X100062333Y-94138200D01*
X100062333Y-93471533D01*
X101462333Y-92071533D02*
X100795666Y-92538200D01*
X101462333Y-92871533D02*
X100062333Y-92871533D01*
X100062333Y-92338200D01*
X100129000Y-92204866D01*
X100195666Y-92138200D01*
X100329000Y-92071533D01*
X100529000Y-92071533D01*
X100662333Y-92138200D01*
X100729000Y-92204866D01*
X100795666Y-92338200D01*
X100795666Y-92871533D01*
X100929000Y-91471533D02*
X100929000Y-90404866D01*
X101995666Y-89338200D02*
X101929000Y-89404866D01*
X101729000Y-89538200D01*
X101595666Y-89604866D01*
X101395666Y-89671533D01*
X101062333Y-89738200D01*
X100795666Y-89738200D01*
X100462333Y-89671533D01*
X100262333Y-89604866D01*
X100129000Y-89538200D01*
X99929000Y-89404866D01*
X99862333Y-89338200D01*
X100062333Y-89004866D02*
X100062333Y-88204866D01*
X101462333Y-88604866D02*
X100062333Y-88604866D01*
X100062333Y-87871533D02*
X101462333Y-86938200D01*
X100062333Y-86938200D02*
X101462333Y-87871533D01*
X101995666Y-86538200D02*
X101929000Y-86471533D01*
X101729000Y-86338200D01*
X101595666Y-86271533D01*
X101395666Y-86204866D01*
X101062333Y-86138200D01*
X100795666Y-86138200D01*
X100462333Y-86204866D01*
X100262333Y-86271533D01*
X100129000Y-86338200D01*
X99929000Y-86471533D01*
X99862333Y-86538200D01*
%TD*%
M02*
