M48
; DRILL file {KiCad 5.1.10-88a1d61d58~90~ubuntu20.04.1} date Tue Sep 14 14:25:59 2021
; FORMAT={-:-/ absolute / inch / decimal}
; #@! TF.CreationDate,2021-09-14T14:25:59-04:00
; #@! TF.GenerationSoftware,Kicad,Pcbnew,5.1.10-88a1d61d58~90~ubuntu20.04.1
FMAT,2
INCH
T1C0.0295
T2C0.0315
T3C0.0315
T4C0.0394
T5C0.0570
T6C0.0598
T7C0.0984
T8C0.1280
%
G90
G05
T1
X3.1Y-2.6
X3.1Y-2.65
X3.1Y-2.7
T2
X3.25Y-2.75
X3.85Y-2.75
X4.15Y-2.6
X4.15Y-2.75
X4.75Y-2.6
X4.75Y-2.75
T3
X3.4Y-2.9
X3.4Y-3.2
X3.5Y-2.9
X3.5Y-3.2
X3.6Y-2.9
X3.6Y-3.2
X3.7Y-2.9
X3.7Y-3.2
X4.85Y-2.9
X4.85Y-3.2
X4.95Y-2.9
X4.95Y-3.2
X5.05Y-2.9
X5.05Y-3.2
X5.15Y-2.9
X5.15Y-3.2
T4
X3.3Y-2.3
X3.3Y-2.4
X3.4Y-2.3
X3.4Y-2.4
X3.5Y-2.3
X3.5Y-2.4
X3.6Y-2.3
X3.6Y-2.4
X3.7Y-2.3
X3.7Y-2.4
X3.8Y-2.3
X3.8Y-2.4
X3.9Y-2.3
X3.9Y-2.4
X4.0Y-2.3
X4.0Y-2.4
X4.1Y-2.3
X4.1Y-2.4
X4.2Y-2.3
X4.2Y-2.4
X4.3Y-2.3
X4.3Y-2.4
X4.4Y-2.3
X4.4Y-2.4
X4.5Y-2.3
X4.5Y-2.4
X4.6Y-2.3
X4.6Y-2.4
X4.7Y-2.3
X4.7Y-2.4
X4.8Y-2.3
X4.8Y-2.4
X4.9Y-2.3
X4.9Y-2.4
X5.0Y-2.3
X5.0Y-2.4
X5.1Y-2.3
X5.1Y-2.4
X5.2Y-2.3
X5.2Y-2.4
T5
X3.397Y-3.658
X3.787Y-3.658
X3.787Y-4.358
X4.847Y-3.658
X5.237Y-3.658
X5.237Y-4.358
T6
X4.1Y-4.35
X4.3Y-4.35
X4.5Y-4.35
T7
X3.1Y-2.35
X3.1Y-4.3
X5.4Y-2.35
T8
X3.6Y-3.658
X3.6Y-3.858
X3.6Y-4.358
X5.05Y-3.658
X5.05Y-3.858
X5.05Y-4.358
T0
M30
